<svg width="315" height="416" viewBox="0 0 315 416" fill="none" xmlns="http://www.w3.org/2000/svg">
<g filter="url(#filter0_d_210_1296)">
<path d="M11 21C11 15.4772 15.4772 11 21 11H286C291.523 11 296 15.4772 296 21V361C296 366.523 291.523 371 286 371H21C15.4771 371 11 366.523 11 361V21Z" fill="#3044B8" fill-opacity="0.7" shape-rendering="crispEdges"/>
</g>
<path d="M37.7344 312.406C39.1384 312.058 39.8404 311.056 39.8404 309.4H38.4004C38.4364 310.228 38.2144 310.828 37.7344 311.2V309.4H35.5204V316.654C35.5204 317.794 35.2384 318.664 34.6744 319.264C34.1224 319.852 33.3484 320.146 32.3524 320.146C31.3444 320.146 30.5644 319.84 30.0124 319.228C29.4484 318.592 29.1664 317.704 29.1664 316.564V309.4H26.9524V316.654C26.9524 318.466 27.4384 319.846 28.4104 320.794C29.3464 321.73 30.6484 322.198 32.3164 322.198C34.0084 322.198 35.3224 321.724 36.2584 320.776C37.2424 319.792 37.7344 318.382 37.7344 316.546V312.406ZM41.1334 321.208C41.7454 321.868 42.5794 322.198 43.6354 322.198C44.8594 322.198 45.8494 321.64 46.6054 320.524V322H48.8014V312.496H46.6054V317.86C46.6054 318.604 46.4074 319.18 46.0114 319.588C45.6154 319.996 45.0994 320.2 44.4634 320.2C43.1074 320.2 42.4294 319.432 42.4294 317.896V312.496H40.2514V318.544C40.2514 319.66 40.5454 320.548 41.1334 321.208ZM56.1751 319.372C56.1751 321.232 57.0871 322.162 58.9111 322.162C59.6431 322.162 60.2971 322 60.8731 321.676V319.894C60.4411 320.11 59.9911 320.218 59.5231 320.218C58.7431 320.218 58.3531 319.822 58.3531 319.03V314.368H60.9091V312.496H58.3531V309.886H56.1751V312.496H54.9691V314.368H56.1751V319.372ZM63.9535 308.968V311.038H66.2935V308.968H63.9535ZM64.0435 312.496V322H66.2215V312.496H64.0435ZM71.1309 308.644L69.0429 311.29H70.7349L72.1209 310.084L73.5249 311.29H75.2529L73.1469 308.644H71.1309ZM68.9349 320.848C69.8469 321.76 71.0049 322.216 72.4089 322.216C74.0049 322.216 75.3009 321.622 76.2969 320.434L75.0189 319.3C74.2509 320.056 73.3929 320.434 72.4449 320.434C71.7369 320.434 71.1369 320.224 70.6449 319.804C70.1529 319.372 69.8409 318.778 69.7089 318.022H76.6929C76.7169 317.638 76.7289 317.434 76.7289 317.41C76.7289 315.958 76.3509 314.764 75.5949 313.828C74.7549 312.808 73.6149 312.298 72.1749 312.298C70.8309 312.298 69.7149 312.784 68.8269 313.756C67.9629 314.716 67.5309 315.88 67.5309 317.248V317.284C67.5309 318.748 67.9989 319.936 68.9349 320.848ZM74.5689 316.582H69.6909C69.7869 315.826 70.0569 315.226 70.5009 314.782C70.9449 314.314 71.4969 314.08 72.1569 314.08C72.8529 314.08 73.4169 314.32 73.8489 314.8C74.2569 315.244 74.4969 315.838 74.5689 316.582ZM79.4381 312.496V322H81.6161V316.636C81.6161 315.892 81.8141 315.316 82.2101 314.908C82.6061 314.488 83.1221 314.278 83.7581 314.278C85.1141 314.278 85.7921 315.052 85.7921 316.6V322H87.9701V315.934C87.9701 314.806 87.6761 313.924 87.0881 313.288C86.4761 312.628 85.6421 312.298 84.5861 312.298C83.3861 312.298 82.3961 312.85 81.6161 313.954V312.496H79.4381ZM95.9967 312.496V322H98.1747V316.636C98.1747 315.892 98.3727 315.316 98.7687 314.908C99.1647 314.488 99.6807 314.278 100.317 314.278C101.673 314.278 102.351 315.052 102.351 316.6V322H104.529V315.934C104.529 314.806 104.235 313.924 103.647 313.288C103.035 312.628 102.201 312.298 101.145 312.298C99.9447 312.298 98.9547 312.85 98.1747 313.954V312.496H95.9967ZM106.655 323.782C107.903 324.538 109.319 324.916 110.903 324.916C112.655 324.916 113.957 324.49 114.809 323.638C115.613 322.834 116.015 321.64 116.015 320.056V312.496H113.837V313.918C112.937 312.838 111.827 312.298 110.507 312.298C109.355 312.298 108.359 312.688 107.519 313.468C106.631 314.32 106.187 315.418 106.187 316.762V316.798C106.187 318.13 106.631 319.222 107.519 320.074C108.335 320.854 109.331 321.244 110.507 321.244C111.839 321.244 112.955 320.662 113.855 319.498V320.236C113.855 322.18 112.853 323.152 110.849 323.152C109.697 323.152 108.569 322.816 107.465 322.144L106.655 323.782ZM113.045 318.67C112.517 319.15 111.863 319.39 111.083 319.39C110.327 319.39 109.691 319.15 109.175 318.67C108.647 318.178 108.383 317.548 108.383 316.78V316.744C108.383 315.976 108.647 315.346 109.175 314.854C109.667 314.374 110.303 314.134 111.083 314.134C111.863 314.134 112.517 314.374 113.045 314.854C113.597 315.358 113.873 315.988 113.873 316.744V316.78C113.873 317.536 113.597 318.166 113.045 318.67ZM127.569 315.502C128.961 315.154 129.657 314.152 129.657 312.496H128.217C128.253 313.312 128.037 313.906 127.569 314.278V312.496H125.373V317.86C125.373 318.604 125.175 319.18 124.779 319.588C124.383 319.996 123.867 320.2 123.231 320.2C121.875 320.2 121.197 319.432 121.197 317.896V312.496H119.019V318.544C119.019 319.66 119.313 320.548 119.901 321.208C120.513 321.868 121.347 322.198 122.403 322.198C123.627 322.198 124.617 321.64 125.373 320.524V322H127.569V315.502ZM137.467 319.426C136.927 320.014 136.225 320.308 135.361 320.308C134.533 320.308 133.837 320.008 133.273 319.408C132.733 318.82 132.463 318.106 132.463 317.266V317.23C132.463 316.366 132.721 315.652 133.237 315.088C133.777 314.5 134.473 314.206 135.325 314.206C136.165 314.206 136.867 314.506 137.431 315.106C137.971 315.694 138.241 316.414 138.241 317.266V317.302C138.241 318.154 137.983 318.862 137.467 319.426ZM139.969 315.142C140.785 314.638 141.193 313.756 141.193 312.496H139.753C139.789 313.192 139.639 313.726 139.303 314.098C139.243 314.014 139.135 313.894 138.979 313.738C137.995 312.778 136.789 312.298 135.361 312.298C133.921 312.298 132.709 312.784 131.725 313.756C130.765 314.716 130.285 315.886 130.285 317.266V317.302C130.285 318.658 130.765 319.816 131.725 320.776C132.685 321.736 133.885 322.216 135.325 322.216C136.765 322.216 137.983 321.73 138.979 320.758C139.939 319.798 140.419 318.634 140.419 317.266V317.23C140.419 316.45 140.269 315.754 139.969 315.142ZM132.499 309.22L134.713 311.29H136.351L134.479 308.338L132.499 309.22ZM143.231 308.968V311.038H145.571V308.968H143.231ZM143.321 312.496V322H145.499V312.496H143.321ZM155.884 320.524C156.736 321.64 157.816 322.198 159.124 322.198C160.324 322.198 161.338 321.772 162.166 320.92C163.078 319.996 163.534 318.778 163.534 317.266V317.23C163.534 315.706 163.078 314.488 162.166 313.576C161.314 312.724 160.3 312.298 159.124 312.298C157.816 312.298 156.736 312.892 155.884 314.08V308.86H153.706V322H155.884V320.524ZM160.528 319.48C160.012 320.032 159.37 320.308 158.602 320.308C157.846 320.308 157.198 320.026 156.658 319.462C156.106 318.898 155.83 318.166 155.83 317.266V317.23C155.83 316.33 156.106 315.598 156.658 315.034C157.198 314.47 157.846 314.188 158.602 314.188C159.358 314.188 159.994 314.464 160.51 315.016C161.05 315.592 161.32 316.33 161.32 317.23V317.266C161.32 318.178 161.056 318.916 160.528 319.48ZM165.854 308.968V311.038H168.194V308.968H165.854ZM165.944 312.496V322H168.122V312.496H165.944ZM171.292 320.848C172.204 321.76 173.362 322.216 174.766 322.216C176.362 322.216 177.658 321.622 178.654 320.434L177.376 319.3C176.608 320.056 175.75 320.434 174.802 320.434C174.094 320.434 173.494 320.224 173.002 319.804C172.51 319.372 172.198 318.778 172.066 318.022H179.05C179.074 317.638 179.086 317.434 179.086 317.41C179.086 315.958 178.708 314.764 177.952 313.828C177.112 312.808 175.972 312.298 174.532 312.298C173.188 312.298 172.072 312.784 171.184 313.756C170.32 314.716 169.888 315.88 169.888 317.248V317.284C169.888 318.748 170.356 319.936 171.292 320.848ZM176.926 316.582H172.048C172.144 315.826 172.414 315.226 172.858 314.782C173.302 314.314 173.854 314.08 174.514 314.08C175.21 314.08 175.774 314.32 176.206 314.8C176.614 315.244 176.854 315.838 176.926 316.582ZM173.47 308.644L171.382 311.29H173.074L174.46 310.084L175.864 311.29H177.592L175.486 308.644H173.47ZM178.654 307.006L176.782 309.958H178.42L180.634 307.888L178.654 307.006ZM181.49 319.372C181.49 321.232 182.402 322.162 184.226 322.162C184.958 322.162 185.612 322 186.188 321.676V319.894C185.756 320.11 185.306 320.218 184.838 320.218C184.058 320.218 183.668 319.822 183.668 319.03V314.368H186.224V312.496H183.668V309.886H181.49V312.496H180.284V314.368H181.49V319.372ZM194.531 320.92C195.383 321.772 196.397 322.198 197.573 322.198C198.881 322.198 199.961 321.604 200.813 320.416V322H202.991V308.86H200.813V313.972C199.961 312.856 198.881 312.298 197.573 312.298C196.385 312.298 195.365 312.724 194.513 313.576C193.613 314.488 193.163 315.706 193.163 317.23V317.266C193.163 318.778 193.619 319.996 194.531 320.92ZM200.021 319.462C199.493 320.026 198.851 320.308 198.095 320.308C197.327 320.308 196.685 320.032 196.169 319.48C195.629 318.904 195.359 318.166 195.359 317.266V317.23C195.359 316.306 195.629 315.562 196.169 314.998C196.685 314.458 197.327 314.188 198.095 314.188C198.863 314.188 199.505 314.464 200.021 315.016C200.573 315.604 200.849 316.342 200.849 317.23V317.266C200.849 318.166 200.573 318.898 200.021 319.462ZM206.702 321.208C207.314 321.868 208.148 322.198 209.204 322.198C210.428 322.198 211.418 321.64 212.174 320.524V322H214.37V312.496H212.174V317.86C212.174 318.604 211.976 319.18 211.58 319.588C211.184 319.996 210.668 320.2 210.032 320.2C208.676 320.2 207.998 319.432 207.998 317.896V312.496H205.82V318.544C205.82 319.66 206.114 320.548 206.702 321.208ZM207.08 309.22L209.294 311.29H210.932L209.06 308.338L207.08 309.22ZM217.198 312.496V322H219.376V316.636C219.376 315.892 219.574 315.316 219.97 314.908C220.366 314.488 220.882 314.278 221.518 314.278C222.874 314.278 223.552 315.052 223.552 316.6V322H225.73V315.934C225.73 314.806 225.436 313.924 224.848 313.288C224.236 312.628 223.402 312.298 222.346 312.298C221.146 312.298 220.156 312.85 219.376 313.954V312.496H217.198ZM227.856 323.782C229.104 324.538 230.52 324.916 232.104 324.916C233.856 324.916 235.158 324.49 236.01 323.638C236.814 322.834 237.216 321.64 237.216 320.056V312.496H235.038V313.918C234.138 312.838 233.028 312.298 231.708 312.298C230.556 312.298 229.56 312.688 228.72 313.468C227.832 314.32 227.388 315.418 227.388 316.762V316.798C227.388 318.13 227.832 319.222 228.72 320.074C229.536 320.854 230.532 321.244 231.708 321.244C233.04 321.244 234.156 320.662 235.056 319.498V320.236C235.056 322.18 234.054 323.152 232.05 323.152C230.898 323.152 229.77 322.816 228.666 322.144L227.856 323.782ZM234.246 318.67C233.718 319.15 233.064 319.39 232.284 319.39C231.528 319.39 230.892 319.15 230.376 318.67C229.848 318.178 229.584 317.548 229.584 316.78V316.744C229.584 315.976 229.848 315.346 230.376 314.854C230.868 314.374 231.504 314.134 232.284 314.134C233.064 314.134 233.718 314.374 234.246 314.854C234.798 315.358 235.074 315.988 235.074 316.744V316.78C235.074 317.536 234.798 318.166 234.246 318.67ZM249.102 309.868V311.182H252.054V313.972C251.202 312.856 250.122 312.298 248.814 312.298C247.626 312.298 246.606 312.724 245.754 313.576C244.854 314.488 244.404 315.706 244.404 317.23V317.266C244.404 318.778 244.86 319.996 245.772 320.92C246.624 321.772 247.638 322.198 248.814 322.198C250.122 322.198 251.202 321.604 252.054 320.416V322H254.232V311.182H255.474V309.868H254.232V308.86H252.054V309.868H249.102ZM251.262 319.462C250.734 320.026 250.092 320.308 249.336 320.308C248.568 320.308 247.926 320.032 247.41 319.48C246.87 318.904 246.6 318.166 246.6 317.266V317.23C246.6 316.306 246.87 315.562 247.41 314.998C247.926 314.458 248.568 314.188 249.336 314.188C250.104 314.188 250.746 314.464 251.262 315.016C251.814 315.604 252.09 316.342 252.09 317.23V317.266C252.09 318.166 251.814 318.898 251.262 319.462ZM257.524 308.968V311.038H259.864V308.968H257.524ZM257.614 312.496V322H259.792V312.496H257.614ZM262.962 320.848C263.874 321.76 265.032 322.216 266.436 322.216C268.032 322.216 269.328 321.622 270.324 320.434L269.046 319.3C268.278 320.056 267.42 320.434 266.472 320.434C265.764 320.434 265.164 320.224 264.672 319.804C264.18 319.372 263.868 318.778 263.736 318.022H270.72C270.744 317.638 270.756 317.434 270.756 317.41C270.756 315.958 270.378 314.764 269.622 313.828C268.782 312.808 267.642 312.298 266.202 312.298C264.858 312.298 263.742 312.784 262.854 313.756C261.99 314.716 261.558 315.88 261.558 317.248V317.284C261.558 318.748 262.026 319.936 262.962 320.848ZM268.596 316.582H263.718C263.814 315.826 264.084 315.226 264.528 314.782C264.972 314.314 265.524 314.08 266.184 314.08C266.88 314.08 267.444 314.32 267.876 314.8C268.284 315.244 268.524 315.838 268.596 316.582ZM265.14 308.644L263.052 311.29H264.744L266.13 310.084L267.534 311.29H269.262L267.156 308.644H265.14ZM265.104 323.476V325.636H267.21V323.476H265.104ZM273.465 312.496V322H275.643V316.636C275.643 315.892 275.841 315.316 276.237 314.908C276.633 314.488 277.149 314.278 277.785 314.278C279.141 314.278 279.819 315.052 279.819 316.6V322H281.997V315.934C281.997 314.806 281.703 313.924 281.115 313.288C280.503 312.628 279.669 312.298 278.613 312.298C277.413 312.298 276.423 312.85 275.643 313.954V312.496H273.465ZM43.6155 349.372C43.6155 351.232 44.5275 352.162 46.3515 352.162C47.0835 352.162 47.7375 352 48.3135 351.676V349.894C47.8815 350.11 47.4315 350.218 46.9635 350.218C46.1835 350.218 45.7935 349.822 45.7935 349.03V344.368H48.3495V342.496H45.7935V339.886H43.6155V342.496H42.4095V344.368H43.6155V349.372ZM51.3219 338.86V352H53.4999V346.636C53.4999 345.892 53.6979 345.316 54.0939 344.908C54.4899 344.488 55.0059 344.278 55.6419 344.278C56.9979 344.278 57.6759 345.052 57.6759 346.6V352H59.8539V345.934C59.8539 344.806 59.5599 343.924 58.9719 343.288C58.3599 342.628 57.5259 342.298 56.4699 342.298C55.2699 342.298 54.2799 342.85 53.4999 343.954V338.86H51.3219ZM61.44 347.302C61.44 348.658 61.92 349.816 62.88 350.776C63.84 351.736 65.04 352.216 66.48 352.216C67.92 352.216 69.138 351.73 70.134 350.758C71.094 349.798 71.574 348.634 71.574 347.266V347.23C71.574 345.862 71.094 344.698 70.134 343.738C69.15 342.778 67.944 342.298 66.516 342.298C65.076 342.298 63.864 342.784 62.88 343.756C61.92 344.716 61.44 345.886 61.44 347.266V347.302ZM68.622 349.426C68.082 350.014 67.38 350.308 66.516 350.308C65.688 350.308 64.992 350.008 64.428 349.408C63.888 348.82 63.618 348.106 63.618 347.266V347.23C63.618 346.366 63.876 345.652 64.392 345.088C64.932 344.5 65.628 344.206 66.48 344.206C67.32 344.206 68.022 344.506 68.586 345.106C69.126 345.694 69.396 346.414 69.396 347.266V347.302C69.396 348.154 69.138 348.862 68.622 349.426ZM74.0621 351.442C74.6861 351.946 75.4721 352.198 76.4201 352.198C77.7041 352.198 78.7361 351.736 79.5161 350.812V352H81.6401V346.366C81.6401 345.082 81.2981 344.104 80.6141 343.432C79.9301 342.724 78.8801 342.37 77.4641 342.37C76.2161 342.37 75.0221 342.628 73.8821 343.144L74.4581 344.854C75.4181 344.458 76.3241 344.26 77.1761 344.26C78.7481 344.26 79.5341 344.95 79.5341 346.33V346.564C78.7301 346.3 77.8781 346.168 76.9781 346.168C75.7781 346.168 74.8361 346.42 74.1521 346.924C73.4201 347.464 73.0541 348.232 73.0541 349.228V349.264C73.0541 350.176 73.3901 350.902 74.0621 351.442ZM79.5701 348.58C79.5701 349.192 79.3301 349.684 78.8501 350.056C78.3701 350.428 77.7641 350.614 77.0321 350.614C76.4921 350.614 76.0541 350.488 75.7181 350.236C75.3581 349.972 75.1781 349.618 75.1781 349.174V349.138C75.1781 348.082 75.9221 347.554 77.4101 347.554C78.2021 347.554 78.9221 347.68 79.5701 347.932V348.58ZM76.2941 353.476V355.636H78.4001V353.476H76.2941ZM84.9506 338.968V341.038H87.2906V338.968H84.9506ZM85.0406 342.496V352H87.2186V342.496H85.0406ZM94.5745 349.372C94.5745 351.232 95.4865 352.162 97.3105 352.162C98.0425 352.162 98.6965 352 99.2725 351.676V349.894C98.8405 350.11 98.3905 350.218 97.9225 350.218C97.1425 350.218 96.7525 349.822 96.7525 349.03V344.368H99.3085V342.496H96.7525V339.886H94.5745V342.496H93.3685V344.368H94.5745V349.372ZM102.281 338.86V352H104.459V346.636C104.459 345.892 104.657 345.316 105.053 344.908C105.449 344.488 105.965 344.278 106.601 344.278C107.957 344.278 108.635 345.052 108.635 346.6V352H110.813V345.934C110.813 344.806 110.519 343.924 109.931 343.288C109.319 342.628 108.485 342.298 107.429 342.298C106.229 342.298 105.239 342.85 104.459 343.954V338.86H102.281ZM116.449 338.644L114.361 341.29H116.053L117.439 340.084L118.843 341.29H120.571L118.465 338.644H116.449ZM112.399 347.302C112.399 348.658 112.879 349.816 113.839 350.776C114.799 351.736 115.999 352.216 117.439 352.216C118.879 352.216 120.097 351.73 121.093 350.758C122.053 349.798 122.533 348.634 122.533 347.266V347.23C122.533 345.862 122.053 344.698 121.093 343.738C120.109 342.778 118.903 342.298 117.475 342.298C116.035 342.298 114.823 342.784 113.839 343.756C112.879 344.716 112.399 345.886 112.399 347.266V347.302ZM119.581 349.426C119.041 350.014 118.339 350.308 117.475 350.308C116.647 350.308 115.951 350.008 115.387 349.408C114.847 348.82 114.577 348.106 114.577 347.266V347.23C114.577 346.366 114.835 345.652 115.351 345.088C115.891 344.5 116.587 344.206 117.439 344.206C118.279 344.206 118.981 344.506 119.545 345.106C120.085 345.694 120.355 346.414 120.355 347.266V347.302C120.355 348.154 120.097 348.862 119.581 349.426ZM125.273 342.496V352H127.451V346.636C127.451 345.892 127.649 345.316 128.045 344.908C128.441 344.488 128.957 344.278 129.593 344.278C130.949 344.278 131.627 345.052 131.627 346.6V352H133.805V345.934C133.805 344.806 133.511 343.924 132.923 343.288C132.311 342.628 131.477 342.298 130.421 342.298C129.221 342.298 128.231 342.85 127.451 343.954V342.496H125.273ZM135.931 353.782C137.179 354.538 138.595 354.916 140.179 354.916C141.931 354.916 143.233 354.49 144.085 353.638C144.889 352.834 145.291 351.64 145.291 350.056V342.496H143.113V343.918C142.213 342.838 141.103 342.298 139.783 342.298C138.631 342.298 137.635 342.688 136.795 343.468C135.907 344.32 135.463 345.418 135.463 346.762V346.798C135.463 348.13 135.907 349.222 136.795 350.074C137.611 350.854 138.607 351.244 139.783 351.244C141.115 351.244 142.231 350.662 143.131 349.498V350.236C143.131 352.18 142.129 353.152 140.125 353.152C138.973 353.152 137.845 352.816 136.741 352.144L135.931 353.782ZM142.321 348.67C141.793 349.15 141.139 349.39 140.359 349.39C139.603 349.39 138.967 349.15 138.451 348.67C137.923 348.178 137.659 347.548 137.659 346.78V346.744C137.659 345.976 137.923 345.346 138.451 344.854C138.943 344.374 139.579 344.134 140.359 344.134C141.139 344.134 141.793 344.374 142.321 344.854C142.873 345.358 143.149 345.988 143.149 346.744V346.78C143.149 347.536 142.873 348.166 142.321 348.67ZM153.908 342.496V352H156.086V346.636C156.086 345.904 156.272 345.328 156.644 344.908C157.028 344.488 157.52 344.278 158.12 344.278C159.404 344.278 160.046 345.046 160.046 346.582V352H162.224V346.636C162.224 345.892 162.416 345.31 162.8 344.89C163.16 344.482 163.646 344.278 164.258 344.278C165.542 344.278 166.184 345.052 166.184 346.6V352H168.362V345.934C168.362 344.77 168.068 343.876 167.48 343.252C166.88 342.616 166.064 342.298 165.032 342.298C163.736 342.298 162.668 342.856 161.828 343.972C161.276 342.856 160.328 342.298 158.984 342.298C157.844 342.298 156.878 342.844 156.086 343.936V342.496H153.908ZM171.083 338.968V341.038H173.423V338.968H171.083ZM171.173 342.496V352H173.351V342.496H171.173ZM176.162 342.496V352H178.34V346.636C178.34 345.892 178.538 345.316 178.934 344.908C179.33 344.488 179.846 344.278 180.482 344.278C181.838 344.278 182.516 345.052 182.516 346.6V352H184.694V345.934C184.694 344.806 184.4 343.924 183.812 343.288C183.2 342.628 182.366 342.298 181.31 342.298C180.11 342.298 179.12 342.85 178.34 343.954V342.496H176.162ZM187.324 338.86V352H189.502V346.636C189.502 345.892 189.7 345.316 190.096 344.908C190.492 344.488 191.008 344.278 191.644 344.278C193 344.278 193.678 345.052 193.678 346.6V352H195.856V345.934C195.856 344.806 195.562 343.924 194.974 343.288C194.362 342.628 193.528 342.298 192.472 342.298C191.272 342.298 190.282 342.85 189.502 343.954V338.86H187.324ZM196.974 353.692L197.208 354.628C199.056 354.472 199.98 353.47 199.98 351.622V349.516H197.586V352H198.522C198.594 352.912 198.078 353.476 196.974 353.692ZM208.968 338.86V352H211.146V338.86H208.968ZM213.615 351.442C214.239 351.946 215.025 352.198 215.973 352.198C217.257 352.198 218.289 351.736 219.069 350.812V352H221.193V346.366C221.193 345.082 220.851 344.104 220.167 343.432C219.483 342.724 218.433 342.37 217.017 342.37C215.769 342.37 214.575 342.628 213.435 343.144L214.011 344.854C214.971 344.458 215.877 344.26 216.729 344.26C218.301 344.26 219.087 344.95 219.087 346.33V346.564C218.283 346.3 217.431 346.168 216.531 346.168C215.331 346.168 214.389 346.42 213.705 346.924C212.973 347.464 212.607 348.232 212.607 349.228V349.264C212.607 350.176 212.943 350.902 213.615 351.442ZM219.123 348.58C219.123 349.192 218.883 349.684 218.403 350.056C217.923 350.428 217.317 350.614 216.585 350.614C216.045 350.614 215.607 350.488 215.271 350.236C214.911 349.972 214.731 349.618 214.731 349.174V349.138C214.731 348.082 215.475 347.554 216.963 347.554C217.755 347.554 218.475 347.68 219.123 347.932V348.58ZM224.431 342.496V354.88H226.609V350.524C227.461 351.64 228.541 352.198 229.849 352.198C231.049 352.198 232.063 351.772 232.891 350.92C233.803 349.996 234.259 348.778 234.259 347.266V347.23C234.259 345.706 233.803 344.488 232.891 343.576C232.039 342.724 231.025 342.298 229.849 342.298C228.541 342.298 227.461 342.892 226.609 344.08V342.496H224.431ZM231.253 349.48C230.737 350.032 230.095 350.308 229.327 350.308C228.571 350.308 227.923 350.026 227.383 349.462C226.831 348.898 226.555 348.166 226.555 347.266V347.23C226.555 346.33 226.831 345.598 227.383 345.034C227.923 344.47 228.571 344.188 229.327 344.188C230.083 344.188 230.719 344.464 231.235 345.016C231.775 345.592 232.045 346.33 232.045 347.23V347.266C232.045 348.178 231.781 348.916 231.253 349.48ZM236.201 349.372C236.201 351.232 237.113 352.162 238.937 352.162C239.669 352.162 240.323 352 240.899 351.676V349.894C240.467 350.11 240.017 350.218 239.549 350.218C238.769 350.218 238.379 349.822 238.379 349.03V344.368H240.935V342.496H238.379V339.886H236.201V342.496H234.995V344.368H236.201V349.372ZM242.6 347.302C242.6 348.658 243.08 349.816 244.04 350.776C245 351.736 246.2 352.216 247.64 352.216C249.08 352.216 250.298 351.73 251.294 350.758C252.254 349.798 252.734 348.634 252.734 347.266V347.23C252.734 345.862 252.254 344.698 251.294 343.738C250.31 342.778 249.104 342.298 247.676 342.298C246.236 342.298 245.024 342.784 244.04 343.756C243.08 344.716 242.6 345.886 242.6 347.266V347.302ZM249.782 349.426C249.242 350.014 248.54 350.308 247.676 350.308C246.848 350.308 246.152 350.008 245.588 349.408C245.048 348.82 244.778 348.106 244.778 347.266V347.23C244.778 346.366 245.036 345.652 245.552 345.088C246.092 344.5 246.788 344.206 247.64 344.206C248.48 344.206 249.182 344.506 249.746 345.106C250.286 345.694 250.556 346.414 250.556 347.266V347.302C250.556 348.154 250.298 348.862 249.782 349.426ZM255.474 342.496V354.88H257.652V350.524C258.504 351.64 259.584 352.198 260.892 352.198C262.092 352.198 263.106 351.772 263.934 350.92C264.846 349.996 265.302 348.778 265.302 347.266V347.23C265.302 345.706 264.846 344.488 263.934 343.576C263.082 342.724 262.068 342.298 260.892 342.298C259.584 342.298 258.504 342.892 257.652 344.08V342.496H255.474ZM262.296 349.48C261.78 350.032 261.138 350.308 260.37 350.308C259.614 350.308 258.966 350.026 258.426 349.462C257.874 348.898 257.598 348.166 257.598 347.266V347.23C257.598 346.33 257.874 345.598 258.426 345.034C258.966 344.47 259.614 344.188 260.37 344.188C261.126 344.188 261.762 344.464 262.278 345.016C262.818 345.592 263.088 346.33 263.088 347.23V347.266C263.088 348.178 262.824 348.916 262.296 349.48Z" fill="white"/>
<path d="M167 147H135C129.48 147 125 151.48 125 157V225C125 230.52 129.48 235 135 235H167C172.52 235 177 230.52 177 225V157C177 151.48 172.52 147 167 147ZM151 231C147.68 231 145 228.32 145 225C145 221.68 147.68 219 151 219C154.32 219 157 221.68 157 225C157 228.32 154.32 231 151 231ZM169 215H133V159H169V215Z" fill="white"/>
<defs>
<filter id="filter0_d_210_1296" x="0" y="0" width="315" height="390" filterUnits="userSpaceOnUse" color-interpolation-filters="sRGB">
<feFlood flood-opacity="0" result="BackgroundImageFix"/>
<feColorMatrix in="SourceAlpha" type="matrix" values="0 0 0 0 0 0 0 0 0 0 0 0 0 0 0 0 0 0 127 0" result="hardAlpha"/>
<feOffset dx="4" dy="4"/>
<feGaussianBlur stdDeviation="7.5"/>
<feComposite in2="hardAlpha" operator="out"/>
<feColorMatrix type="matrix" values="0 0 0 0 0 0 0 0 0 0 0 0 0 0 0 0 0 0 0.5 0"/>
<feBlend mode="normal" in2="BackgroundImageFix" result="effect1_dropShadow_210_1296"/>
<feBlend mode="normal" in="SourceGraphic" in2="effect1_dropShadow_210_1296" result="shape"/>
</filter>
</defs>
</svg>
