<svg width="315" height="416" viewBox="0 0 315 416" fill="none" xmlns="http://www.w3.org/2000/svg">
<g filter="url(#filter0_d_166_1852)">
<path d="M11 21C11 15.4772 15.4772 11 21 11H286C291.523 11 296 15.4772 296 21V361C296 366.523 291.523 371 286 371H21C15.4771 371 11 366.523 11 361V21Z" fill="#3044B8" fill-opacity="0.7" shape-rendering="crispEdges"/>
</g>
<path d="M42.4304 309.4V322H44.6084V313.036L51.5564 322H53.4104V309.4H51.2324V318.112L44.4824 309.4H42.4304ZM55.8951 321.442C56.5191 321.946 57.3051 322.198 58.2531 322.198C59.5371 322.198 60.5691 321.736 61.3491 320.812V322H63.4731V316.366C63.4731 315.082 63.1311 314.104 62.4471 313.432C61.7631 312.724 60.7131 312.37 59.2971 312.37C58.0491 312.37 56.8551 312.628 55.7151 313.144L56.2911 314.854C57.2511 314.458 58.1571 314.26 59.0091 314.26C60.5811 314.26 61.3671 314.95 61.3671 316.33V316.564C60.5631 316.3 59.7111 316.168 58.8111 316.168C57.6111 316.168 56.6691 316.42 55.9851 316.924C55.2531 317.464 54.8871 318.232 54.8871 319.228V319.264C54.8871 320.176 55.2231 320.902 55.8951 321.442ZM61.4031 318.58C61.4031 319.192 61.1631 319.684 60.6831 320.056C60.2031 320.428 59.5971 320.614 58.8651 320.614C58.3251 320.614 57.8871 320.488 57.5511 320.236C57.1911 319.972 57.0111 319.618 57.0111 319.174V319.138C57.0111 318.082 57.7551 317.554 59.2431 317.554C60.0351 317.554 60.7551 317.68 61.4031 317.932V318.58ZM66.7116 312.496V322H68.8896V316.636C68.8896 315.904 69.0756 315.328 69.4476 314.908C69.8316 314.488 70.3236 314.278 70.9236 314.278C72.2076 314.278 72.8496 315.046 72.8496 316.582V322H75.0276V316.636C75.0276 315.892 75.2196 315.31 75.6036 314.89C75.9636 314.482 76.4496 314.278 77.0616 314.278C78.3456 314.278 78.9876 315.052 78.9876 316.6V322H81.1656V315.934C81.1656 314.77 80.8716 313.876 80.2836 313.252C79.6836 312.616 78.8676 312.298 77.8356 312.298C76.5396 312.298 75.4716 312.856 74.6316 313.972C74.0796 312.856 73.1316 312.298 71.7876 312.298C70.6476 312.298 69.6816 312.844 68.8896 313.936V312.496H66.7116ZM82.3031 323.692L82.5371 324.628C84.3851 324.472 85.3091 323.47 85.3091 321.622V319.516H82.9151V322H83.8511C83.9231 322.912 83.4071 323.476 82.3031 323.692ZM94.0456 312.496V322H96.2236V316.636C96.2236 315.892 96.4216 315.316 96.8176 314.908C97.2136 314.488 97.7296 314.278 98.3656 314.278C99.7216 314.278 100.4 315.052 100.4 316.6V322H102.578V315.934C102.578 314.806 102.284 313.924 101.696 313.288C101.084 312.628 100.25 312.298 99.1936 312.298C97.9936 312.298 97.0036 312.85 96.2236 313.954V312.496H94.0456ZM113.542 315.502C114.934 315.154 115.63 314.152 115.63 312.496H114.19C114.226 313.312 114.01 313.906 113.542 314.278V312.496H111.346V317.86C111.346 318.604 111.148 319.18 110.752 319.588C110.356 319.996 109.84 320.2 109.204 320.2C107.848 320.2 107.17 319.432 107.17 317.896V312.496H104.992V318.544C104.992 319.66 105.286 320.548 105.874 321.208C106.486 321.868 107.32 322.198 108.376 322.198C109.6 322.198 110.59 321.64 111.346 320.524V322H113.542V315.502ZM109.42 311.038C110.044 311.29 110.548 311.416 110.932 311.416C111.856 311.416 112.528 310.666 112.948 309.166L111.742 308.806C111.466 309.406 111.136 309.706 110.752 309.706C110.524 309.706 110.164 309.592 109.672 309.364C109.048 309.112 108.544 308.986 108.16 308.986C107.224 308.986 106.552 309.73 106.144 311.218L107.35 311.596C107.626 310.996 107.956 310.696 108.34 310.696C108.568 310.696 108.928 310.81 109.42 311.038ZM121.847 319.372C121.847 321.232 122.759 322.162 124.583 322.162C125.315 322.162 125.969 322 126.545 321.676V319.894C126.113 320.11 125.663 320.218 125.195 320.218C124.415 320.218 124.025 319.822 124.025 319.03V314.368H126.581V312.496H124.025V309.886H121.847V312.496H120.641V314.368H121.847V319.372ZM137.887 315.502C139.279 315.154 139.975 314.152 139.975 312.496H138.535C138.571 313.312 138.355 313.906 137.887 314.278V312.496H135.691V317.86C135.691 318.604 135.493 319.18 135.097 319.588C134.701 319.996 134.185 320.2 133.549 320.2C132.193 320.2 131.515 319.432 131.515 317.896V312.496H129.337V318.544C129.337 319.66 129.631 320.548 130.219 321.208C130.831 321.868 131.665 322.198 132.721 322.198C133.945 322.198 134.935 321.64 135.691 320.524V322H137.887V315.502ZM130.867 309.598L133.081 311.668H134.719L132.847 308.716L130.867 309.598ZM147.98 311.56V322H150.176V309.31H148.646L145.244 310.39L145.712 312.19L147.98 311.56ZM154.54 321.19C155.428 321.85 156.574 322.18 157.978 322.18C159.394 322.18 160.54 321.85 161.416 321.19C162.328 320.53 162.784 319.642 162.784 318.526V318.49C162.784 317.158 162.028 316.15 160.516 315.466C161.74 314.818 162.352 313.882 162.352 312.658V312.622C162.352 311.65 161.938 310.84 161.11 310.192C160.282 309.544 159.238 309.22 157.978 309.22C156.718 309.22 155.674 309.544 154.846 310.192C154.018 310.84 153.604 311.65 153.604 312.622V312.658C153.604 313.882 154.216 314.818 155.44 315.466C153.928 316.102 153.172 317.122 153.172 318.526V318.562C153.172 319.654 153.628 320.53 154.54 321.19ZM159.598 314.206C159.154 314.554 158.614 314.728 157.978 314.728C157.33 314.728 156.796 314.554 156.376 314.206C155.944 313.858 155.728 313.408 155.728 312.856V312.82C155.728 312.328 155.932 311.92 156.34 311.596C156.784 311.248 157.33 311.074 157.978 311.074C158.626 311.074 159.172 311.248 159.616 311.596C160.024 311.932 160.228 312.346 160.228 312.838V312.874C160.228 313.414 160.018 313.858 159.598 314.206ZM159.922 319.768C159.442 320.14 158.794 320.326 157.978 320.326C157.174 320.326 156.532 320.14 156.052 319.768C155.584 319.408 155.35 318.964 155.35 318.436V318.4C155.35 317.836 155.602 317.374 156.106 317.014C156.598 316.666 157.222 316.492 157.978 316.492C158.722 316.492 159.352 316.666 159.868 317.014C160.372 317.374 160.624 317.836 160.624 318.4V318.436C160.624 318.988 160.39 319.432 159.922 319.768ZM170.064 319.372C170.064 321.232 170.976 322.162 172.8 322.162C173.532 322.162 174.186 322 174.762 321.676V319.894C174.33 320.11 173.88 320.218 173.412 320.218C172.632 320.218 172.242 319.822 172.242 319.03V314.368H174.798V312.496H172.242V309.886H170.064V312.496H168.858V314.368H170.064V319.372ZM178.436 321.208C179.048 321.868 179.882 322.198 180.938 322.198C182.162 322.198 183.152 321.64 183.908 320.524V322H186.104V312.496H183.908V317.86C183.908 318.604 183.71 319.18 183.314 319.588C182.918 319.996 182.402 320.2 181.766 320.2C180.41 320.2 179.732 319.432 179.732 317.896V312.496H177.554V318.544C177.554 319.66 177.848 320.548 178.436 321.208ZM187.888 317.302C187.888 318.658 188.368 319.816 189.328 320.776C190.288 321.736 191.488 322.216 192.928 322.216C194.368 322.216 195.586 321.73 196.582 320.758C197.542 319.798 198.022 318.634 198.022 317.266V317.23C198.022 315.862 197.542 314.698 196.582 313.738C195.598 312.778 194.392 312.298 192.964 312.298C191.524 312.298 190.312 312.784 189.328 313.756C188.368 314.716 187.888 315.886 187.888 317.266V317.302ZM195.07 319.426C194.53 320.014 193.828 320.308 192.964 320.308C192.136 320.308 191.44 320.008 190.876 319.408C190.336 318.82 190.066 318.106 190.066 317.266V317.23C190.066 316.366 190.324 315.652 190.84 315.088C191.38 314.5 192.076 314.206 192.928 314.206C193.768 314.206 194.47 314.506 195.034 315.106C195.574 315.694 195.844 316.414 195.844 317.266V317.302C195.844 318.154 195.586 318.862 195.07 319.426ZM191.938 308.644L189.85 311.29H191.542L192.928 310.084L194.332 311.29H196.06L193.954 308.644H191.938ZM194.584 306.196V307.24C195.448 307.24 195.88 307.498 195.88 308.014C195.88 308.398 195.634 308.818 195.142 309.274H196.6C197.224 308.734 197.536 308.2 197.536 307.672C197.536 307.216 197.332 306.856 196.924 306.592C196.516 306.328 195.928 306.184 195.16 306.16L194.584 306.196ZM200.834 308.968V311.038H203.174V308.968H200.834ZM200.924 312.496V322H203.102V312.496H200.924ZM210.458 319.372C210.458 321.232 211.37 322.162 213.194 322.162C213.926 322.162 214.58 322 215.156 321.676V319.894C214.724 320.11 214.274 320.218 213.806 320.218C213.026 320.218 212.636 319.822 212.636 319.03V314.368H215.192V312.496H212.636V309.886H210.458V312.496H209.252V314.368H210.458V319.372ZM218.165 312.496V322H220.343V318.382C220.343 317.17 220.643 316.228 221.243 315.556C221.819 314.932 222.599 314.62 223.583 314.62H223.709V312.316C222.137 312.244 221.015 313.018 220.343 314.638V312.496H218.165ZM231.738 319.426C231.198 320.014 230.496 320.308 229.632 320.308C228.804 320.308 228.108 320.008 227.544 319.408C227.004 318.82 226.734 318.106 226.734 317.266V317.23C226.734 316.366 226.992 315.652 227.508 315.088C228.048 314.5 228.744 314.206 229.596 314.206C230.436 314.206 231.138 314.506 231.702 315.106C232.242 315.694 232.512 316.414 232.512 317.266V317.302C232.512 318.154 232.254 318.862 231.738 319.426ZM234.24 315.142C235.056 314.638 235.464 313.756 235.464 312.496H234.024C234.06 313.192 233.91 313.726 233.574 314.098C233.514 314.014 233.406 313.894 233.25 313.738C232.266 312.778 231.06 312.298 229.632 312.298C228.192 312.298 226.98 312.784 225.996 313.756C225.036 314.716 224.556 315.886 224.556 317.266V317.302C224.556 318.658 225.036 319.816 225.996 320.776C226.956 321.736 228.156 322.216 229.596 322.216C231.036 322.216 232.254 321.73 233.25 320.758C234.21 319.798 234.69 318.634 234.69 317.266V317.23C234.69 316.45 234.54 315.754 234.24 315.142ZM226.77 309.22L228.984 311.29H230.622L228.75 308.338L226.77 309.22ZM243.079 308.86V322H245.257V308.86H243.079ZM250.076 308.644L247.988 311.29H249.68L251.066 310.084L252.47 311.29H254.198L252.092 308.644H250.076ZM247.88 320.848C248.792 321.76 249.95 322.216 251.354 322.216C252.95 322.216 254.246 321.622 255.242 320.434L253.964 319.3C253.196 320.056 252.338 320.434 251.39 320.434C250.682 320.434 250.082 320.224 249.59 319.804C249.098 319.372 248.786 318.778 248.654 318.022H255.638C255.662 317.638 255.674 317.434 255.674 317.41C255.674 315.958 255.296 314.764 254.54 313.828C253.7 312.808 252.56 312.298 251.12 312.298C249.776 312.298 248.66 312.784 247.772 313.756C246.908 314.716 246.476 315.88 246.476 317.248V317.284C246.476 318.748 246.944 319.936 247.88 320.848ZM253.514 316.582H248.636C248.732 315.826 249.002 315.226 249.446 314.782C249.89 314.314 250.442 314.08 251.102 314.08C251.798 314.08 252.362 314.32 252.794 314.8C253.202 315.244 253.442 315.838 253.514 316.582ZM258.383 312.496V322H260.561V316.636C260.561 315.892 260.759 315.316 261.155 314.908C261.551 314.488 262.067 314.278 262.703 314.278C264.059 314.278 264.737 315.052 264.737 316.6V322H266.915V315.934C266.915 314.806 266.621 313.924 266.033 313.288C265.421 312.628 264.587 312.298 263.531 312.298C262.331 312.298 261.341 312.85 260.561 313.954V312.496H258.383Z" fill="white"/>
<path d="M152.96 151C130.88 151 112.96 168.92 112.96 191C112.96 213.08 130.88 231 152.96 231C175.04 231 192.96 213.08 192.96 191C192.96 168.92 175.04 151 152.96 151ZM167.4 176.36C171.68 176.36 175.12 179.8 175.12 184.08C175.12 188.36 171.68 191.8 167.4 191.8C163.12 191.8 159.68 188.36 159.68 184.08C159.64 179.8 163.12 176.36 167.4 176.36ZM143.4 170.04C148.6 170.04 152.84 174.28 152.84 179.48C152.84 184.68 148.6 188.92 143.4 188.92C138.2 188.92 133.96 184.68 133.96 179.48C133.96 174.24 138.16 170.04 143.4 170.04ZM143.4 206.56V221.56C133.8 218.56 126.2 211.16 122.84 201.72C127.04 197.24 137.52 194.96 143.4 194.96C145.52 194.96 148.2 195.28 151 195.84C144.44 199.32 143.4 203.92 143.4 206.56ZM152.96 223C151.88 223 150.84 222.96 149.8 222.84V206.56C149.8 200.88 161.56 198.04 167.4 198.04C171.68 198.04 179.08 199.6 182.76 202.64C178.08 214.52 166.52 223 152.96 223Z" fill="white"/>
<defs>
<filter id="filter0_d_166_1852" x="0" y="0" width="315" height="390" filterUnits="userSpaceOnUse" color-interpolation-filters="sRGB">
<feFlood flood-opacity="0" result="BackgroundImageFix"/>
<feColorMatrix in="SourceAlpha" type="matrix" values="0 0 0 0 0 0 0 0 0 0 0 0 0 0 0 0 0 0 127 0" result="hardAlpha"/>
<feOffset dx="4" dy="4"/>
<feGaussianBlur stdDeviation="7.5"/>
<feComposite in2="hardAlpha" operator="out"/>
<feColorMatrix type="matrix" values="0 0 0 0 0 0 0 0 0 0 0 0 0 0 0 0 0 0 0.5 0"/>
<feBlend mode="normal" in2="BackgroundImageFix" result="effect1_dropShadow_166_1852"/>
<feBlend mode="normal" in="SourceGraphic" in2="effect1_dropShadow_166_1852" result="shape"/>
</filter>
</defs>
</svg>
