<svg width="30" height="24" viewBox="0 0 30 24" fill="none" xmlns="http://www.w3.org/2000/svg">
<path fill-rule="evenodd" clip-rule="evenodd" d="M11.9918 12.76L14.5452 15.2852C14.7328 15.4712 14.9863 15.5756 15.2505 15.5756C15.5148 15.5756 15.7683 15.4712 15.9559 15.2852L18.2906 12.9716L29.9996 21.2666V22.2541C30.0034 22.3883 29.98 22.5218 29.9309 22.6467C29.8817 22.7716 29.8078 22.8852 29.7136 22.9808C29.6193 23.0763 29.5067 23.1518 29.3825 23.2027C29.2583 23.2536 29.1251 23.2788 28.9909 23.2769H1.00225C0.86836 23.2789 0.735467 23.2536 0.611645 23.2027C0.487823 23.1517 0.37566 23.0761 0.281973 22.9804C0.188286 22.8848 0.115034 22.771 0.0666686 22.6462C0.0183037 22.5213 -0.0041631 22.3879 0.000633963 22.2541V21.2666L11.9918 12.76ZM0.000633963 19.8488V0.987504C0.00360498 0.776499 0.0726803 0.57174 0.198135 0.402055L10.581 11.3492L0.000633963 19.8488ZM14.5381 12.4778L1.2068 0H28.9909C29.0916 0.00147533 29.1915 0.0181208 29.2872 0.0493752L15.9488 12.4778C15.7612 12.6639 15.5077 12.7683 15.2435 12.7683C14.9792 12.7683 14.7257 12.6639 14.5381 12.4778ZM29.9714 0.775896C29.9783 0.846262 29.9783 0.917138 29.9714 0.987504V19.8347C29.9714 19.8347 24.399 15.1652 19.7084 11.5609C25.972 5.36074 29.9714 0.775896 29.9714 0.775896Z" fill="white"/>
</svg>
