<svg width="293" height="344" viewBox="0 0 293 344" fill="none" xmlns="http://www.w3.org/2000/svg">
<g filter="url(#filter0_d_166_1873)">
<ellipse cx="146.5" cy="142.684" rx="142.5" ry="142.684" fill="#3044B8" fill-opacity="0.7" shape-rendering="crispEdges"/>
</g>
<path d="M42.2071 336.954C43.7251 338.494 45.5951 339.264 47.8611 339.264C50.3471 339.264 52.4591 338.34 54.1751 336.514L52.0191 334.336C50.6991 335.546 49.3571 336.14 47.9711 336.14C46.6731 336.14 45.6171 335.656 44.7591 334.71C43.9231 333.786 43.5051 332.642 43.5051 331.3V331.256C43.5051 329.914 43.9231 328.792 44.7591 327.868C45.6171 326.922 46.6951 326.46 47.9711 326.46C49.3131 326.46 50.6331 327.032 51.9091 328.198L54.0651 325.712C52.4591 324.128 50.4351 323.336 47.9931 323.336C45.6611 323.336 43.7251 324.106 42.2071 325.668C40.7111 327.186 39.9631 329.078 39.9631 331.3V331.344C39.9631 333.566 40.7111 335.436 42.2071 336.954ZM57.5525 337.482C58.7625 338.67 60.2805 339.264 62.1065 339.264C63.9325 339.264 65.4505 338.67 66.6825 337.46C67.8925 336.294 68.5085 334.842 68.5085 333.126V333.082C68.5085 331.388 67.9145 329.936 66.7045 328.77C65.4945 327.582 63.9765 326.988 62.1505 326.988C60.3245 326.988 58.8065 327.582 57.5745 328.792C56.3645 329.958 55.7485 331.41 55.7485 333.126V333.17C55.7485 334.864 56.3425 336.316 57.5525 337.482ZM64.3945 335.436C63.8225 336.074 63.0745 336.382 62.1505 336.382C61.2485 336.382 60.5005 336.052 59.9065 335.414C59.3345 334.776 59.0485 334.028 59.0485 333.126V333.082C59.0485 332.18 59.3125 331.41 59.8625 330.816C60.4345 330.178 61.1825 329.87 62.1065 329.87C63.0085 329.87 63.7565 330.2 64.3505 330.838C64.9225 331.476 65.2085 332.224 65.2085 333.126V333.17C65.2085 334.072 64.9445 334.842 64.3945 335.436ZM60.8085 325.91H63.2725L66.1325 323.27L63.2505 322.016L60.8085 325.91ZM78.1329 337.482C79.2989 338.67 80.7729 339.264 82.5329 339.264C84.4469 339.264 86.0529 338.538 87.3509 337.108L85.3929 335.128C84.5129 335.964 83.6109 336.382 82.6869 336.382C81.7849 336.382 81.0589 336.074 80.5089 335.436C79.9589 334.82 79.6949 334.05 79.6949 333.126V333.082C79.6949 332.202 79.9589 331.454 80.5089 330.816C81.0589 330.178 81.7409 329.87 82.5549 329.87C83.5229 329.87 84.4249 330.31 85.2389 331.168L87.2849 328.968C86.1189 327.648 84.5349 326.988 82.5769 326.988C80.7949 326.988 79.3209 327.582 78.1329 328.792C76.9669 329.98 76.3949 331.432 76.3949 333.126V333.17C76.3949 334.864 76.9669 336.316 78.1329 337.482ZM97.6093 335.436C97.0373 336.074 96.2893 336.382 95.3653 336.382C94.4633 336.382 93.7153 336.052 93.1213 335.414C92.5493 334.776 92.2633 334.028 92.2633 333.126V333.082C92.2633 332.18 92.5273 331.41 93.0773 330.816C93.6493 330.178 94.3973 329.87 95.3213 329.87C96.2233 329.87 96.9713 330.2 97.5653 330.838C98.1373 331.476 98.4233 332.224 98.4233 333.126V333.17C98.4233 334.072 98.1593 334.842 97.6093 335.436ZM101.151 330.464C102.427 330.024 103.065 328.924 103.065 327.186H101.173C101.239 328.22 100.953 328.902 100.359 329.254C100.227 329.1 100.073 328.924 99.9193 328.77C98.7093 327.582 97.1913 326.988 95.3653 326.988C93.5393 326.988 92.0213 327.582 90.7893 328.792C89.5793 329.958 88.9633 331.41 88.9633 333.126V333.17C88.9633 334.864 89.5573 336.316 90.7673 337.482C91.9773 338.67 93.4953 339.264 95.3213 339.264C97.1473 339.264 98.6653 338.67 99.8973 337.46C101.107 336.294 101.723 334.842 101.723 333.126V333.082C101.723 332.136 101.525 331.256 101.151 330.464ZM111.342 339H114.686V332.422C114.686 330.816 115.39 330.024 116.776 330.024C118.118 330.024 118.8 330.816 118.8 332.422V339H122.144V331.366C122.144 330.002 121.792 328.924 121.088 328.154C120.384 327.384 119.394 326.988 118.14 326.988C116.82 326.988 115.676 327.626 114.686 328.88V322.94H111.342V339ZM126.281 337.482C127.491 338.67 129.009 339.264 130.835 339.264C132.661 339.264 134.179 338.67 135.411 337.46C136.621 336.294 137.237 334.842 137.237 333.126V333.082C137.237 331.388 136.643 329.936 135.433 328.77C134.223 327.582 132.705 326.988 130.879 326.988C129.053 326.988 127.535 327.582 126.303 328.792C125.093 329.958 124.477 331.41 124.477 333.126V333.17C124.477 334.864 125.071 336.316 126.281 337.482ZM133.123 335.436C132.551 336.074 131.803 336.382 130.879 336.382C129.977 336.382 129.229 336.052 128.635 335.414C128.063 334.776 127.777 334.028 127.777 333.126V333.082C127.777 332.18 128.041 331.41 128.591 330.816C129.163 330.178 129.911 329.87 130.835 329.87C131.737 329.87 132.485 330.2 133.079 330.838C133.651 331.476 133.937 332.224 133.937 333.126V333.17C133.937 334.072 133.673 334.842 133.123 335.436ZM126.567 325.91H129.097L130.835 324.458L132.573 325.91H135.147L132.441 322.456H129.273L126.567 325.91ZM129.251 343.708H132.463V340.54H129.251V343.708ZM139.724 325.91H143.244V322.94H139.724V325.91ZM139.812 339H143.156V327.208H139.812V339ZM152.893 342.52H156.237V337.46C157.227 338.626 158.437 339.22 159.911 339.22C161.385 339.22 162.639 338.692 163.651 337.658C164.729 336.514 165.279 334.996 165.279 333.126V333.082C165.279 331.212 164.729 329.694 163.629 328.55C162.617 327.516 161.385 326.988 159.911 326.988C158.393 326.988 157.183 327.626 156.237 328.902V327.208H152.893V342.52ZM161.077 335.502C160.527 336.096 159.867 336.382 159.053 336.382C158.239 336.382 157.579 336.074 157.029 335.48C156.479 334.864 156.193 334.072 156.193 333.126V333.082C156.193 332.136 156.479 331.344 157.029 330.728C157.579 330.134 158.239 329.826 159.053 329.826C159.867 329.826 160.527 330.134 161.077 330.728C161.649 331.344 161.935 332.136 161.935 333.082V333.126C161.935 334.094 161.649 334.886 161.077 335.502ZM167.738 339H171.082V332.422C171.082 330.816 171.786 330.024 173.172 330.024C174.514 330.024 175.196 330.816 175.196 332.422V339H178.54V331.366C178.54 330.002 178.188 328.924 177.484 328.154C176.78 327.384 175.79 326.988 174.536 326.988C173.216 326.988 172.072 327.626 171.082 328.88V322.94H167.738V339ZM181.929 338.296C182.677 338.912 183.623 339.22 184.789 339.22C186.263 339.22 187.451 338.714 188.353 337.724V339H191.587V332.158C191.587 330.508 191.169 329.254 190.311 328.396C189.431 327.516 188.111 327.076 186.329 327.076C184.723 327.076 183.183 327.384 181.753 328.022L182.589 330.574C183.755 330.156 184.833 329.936 185.845 329.936C187.539 329.936 188.375 330.662 188.375 332.092V332.29C187.429 331.96 186.483 331.806 185.493 331.806C184.041 331.806 182.897 332.114 182.061 332.73C181.181 333.368 180.741 334.314 180.741 335.568V335.612C180.741 336.734 181.137 337.636 181.929 338.296ZM187.693 336.338C187.209 336.712 186.571 336.91 185.801 336.91C184.591 336.91 183.975 336.426 183.975 335.48V335.436C183.975 334.358 184.745 333.808 186.285 333.808C187.077 333.808 187.781 333.962 188.419 334.248V334.842C188.419 335.436 188.177 335.942 187.693 336.338ZM185.185 325.91H187.649L190.509 323.27L187.627 322.016L185.185 325.91ZM194.908 335.656C194.908 338.01 196.052 339.198 198.34 339.198C199.33 339.198 200.21 338.978 200.98 338.516V335.832C200.474 336.118 199.924 336.25 199.33 336.25C198.604 336.25 198.252 335.876 198.252 335.106V330.068H201.024V327.208H198.252V324.194H194.908V327.208H193.5V330.068H194.908V335.656ZM209.968 335.656C209.968 338.01 211.112 339.198 213.4 339.198C214.39 339.198 215.27 338.978 216.04 338.516V335.832C215.534 336.118 214.984 336.25 214.39 336.25C213.664 336.25 213.312 335.876 213.312 335.106V330.068H216.084V327.208H213.312V324.194H209.968V327.208H208.56V330.068H209.968V335.656ZM218.549 339H221.893V334.644C221.893 331.872 223.081 330.486 225.479 330.486H225.655V326.988C223.917 326.922 222.663 327.78 221.893 329.584V327.208H218.549V339ZM227.81 325.91H231.33V322.94H227.81V325.91ZM227.898 339H231.242V327.208H227.898V339ZM235.571 337.57C236.715 338.692 238.189 339.264 239.971 339.264C241.995 339.264 243.601 338.538 244.789 337.064L242.875 335.37C242.017 336.184 241.049 336.58 240.015 336.58C238.431 336.58 237.463 335.81 237.133 334.27H245.339C245.361 333.852 245.383 333.566 245.383 333.39C245.383 331.586 244.921 330.09 243.997 328.924C242.963 327.626 241.511 326.988 239.641 326.988C237.947 326.988 236.561 327.582 235.439 328.792C234.361 329.958 233.811 331.41 233.811 333.126V333.17C233.811 334.952 234.405 336.426 235.571 337.57ZM237.089 332.18C237.375 330.508 238.233 329.672 239.641 329.672C241.071 329.672 241.907 330.508 242.127 332.18H237.089ZM235.307 325.91H237.837L239.575 324.458L241.313 325.91H243.887L241.181 322.456H238.013L235.307 325.91ZM241.665 320.388C242.699 320.344 243.205 320.652 243.205 321.29C243.205 321.752 242.963 322.236 242.457 322.742H244.679C245.295 322.016 245.603 321.356 245.603 320.762C245.603 320.212 245.361 319.75 244.855 319.398C244.305 319.024 243.579 318.848 242.655 318.848C242.347 318.848 242.017 318.87 241.665 318.914V320.388ZM247.875 339H251.219V332.422C251.219 330.816 251.923 330.024 253.309 330.024C254.651 330.024 255.333 330.816 255.333 332.422V339H258.677V331.366C258.677 330.002 258.325 328.924 257.621 328.154C256.917 327.384 255.927 326.988 254.673 326.988C253.353 326.988 252.209 327.626 251.219 328.88V327.208H247.875V339Z" fill="#3044B8"/>
<path d="M148.97 149.241L176.654 121.776C172.409 121.776 168.297 121.799 164.184 121.776C163.089 121.811 161.994 121.697 160.93 121.438C159.88 121.09 158.981 120.395 158.38 119.47C157.78 118.545 157.515 117.444 157.629 116.348C157.935 114.003 159.831 112.061 162.171 112.042C171.288 111.986 180.406 111.986 189.524 112.042C190.119 112.04 190.708 112.157 191.255 112.386C191.803 112.616 192.299 112.953 192.713 113.377C193.127 113.801 193.45 114.305 193.664 114.856C193.878 115.408 193.978 115.997 193.958 116.588C194.014 125.572 194.014 134.557 193.958 143.541C193.91 144.782 193.382 145.956 192.485 146.819C191.589 147.682 190.391 148.167 189.144 148.174C187.896 148.18 186.693 147.708 185.787 146.854C184.881 146.001 184.341 144.833 184.28 143.593C184.143 139.69 184.233 135.783 184.228 131.866C184.228 131.031 184.228 130.196 184.228 128.836C183.285 129.703 182.719 130.182 182.195 130.712C172.763 140.094 163.318 149.483 153.861 158.881C150.474 162.244 148.201 162.249 144.862 158.923C140.877 154.954 136.906 150.976 132.397 146.478C131.78 147.416 131.398 148.228 130.799 148.823C122.797 156.788 114.789 164.747 106.774 172.7C104.817 174.637 102.638 175.045 100.587 173.943C98.5353 172.841 97.6816 171.063 98.1061 168.853C98.32 167.797 98.8283 166.822 99.5728 166.039C109.354 156.213 119.178 146.426 129.044 136.679C131.402 134.333 134.095 134.399 136.524 136.787C140.764 140.957 144.933 145.193 148.97 149.241Z" fill="white"/>
<defs>
<filter id="filter0_d_166_1873" x="0" y="0" width="293" height="293.368" filterUnits="userSpaceOnUse" color-interpolation-filters="sRGB">
<feFlood flood-opacity="0" result="BackgroundImageFix"/>
<feColorMatrix in="SourceAlpha" type="matrix" values="0 0 0 0 0 0 0 0 0 0 0 0 0 0 0 0 0 0 127 0" result="hardAlpha"/>
<feOffset dy="4"/>
<feGaussianBlur stdDeviation="2"/>
<feComposite in2="hardAlpha" operator="out"/>
<feColorMatrix type="matrix" values="0 0 0 0 0 0 0 0 0 0 0 0 0 0 0 0 0 0 0.25 0"/>
<feBlend mode="normal" in2="BackgroundImageFix" result="effect1_dropShadow_166_1873"/>
<feBlend mode="normal" in="SourceGraphic" in2="effect1_dropShadow_166_1873" result="shape"/>
</filter>
</defs>
</svg>
