<svg width="293" height="344" viewBox="0 0 293 344" fill="none" xmlns="http://www.w3.org/2000/svg">
<g filter="url(#filter0_d_210_1370)">
<ellipse cx="146.5" cy="142.931" rx="142.5" ry="142.684" fill="#3044B8" fill-opacity="0.7" shape-rendering="crispEdges"/>
</g>
<path d="M14.4449 339.247H17.8329V334.539L19.6149 332.691L24.3889 339.247H28.4589L21.9029 330.381L28.1729 323.847H24.0809L17.8329 330.579V323.847H14.4449V339.247ZM30.1632 339.247H33.5072V332.669C33.5072 331.063 34.2112 330.271 35.5972 330.271C36.9392 330.271 37.6212 331.063 37.6212 332.669V339.247H40.9652V331.613C40.9652 330.249 40.6132 329.171 39.9092 328.401C39.2052 327.631 38.2152 327.235 36.9612 327.235C35.6412 327.235 34.4972 327.873 33.5072 329.127V323.187H30.1632V339.247ZM45.1023 337.729C46.3123 338.917 47.8303 339.511 49.6563 339.511C51.4823 339.511 53.0003 338.917 54.2323 337.707C55.4423 336.541 56.0583 335.089 56.0583 333.373V333.329C56.0583 331.635 55.4643 330.183 54.2543 329.017C53.0443 327.829 51.5263 327.235 49.7003 327.235C47.8743 327.235 46.3563 327.829 45.1243 329.039C43.9143 330.205 43.2983 331.657 43.2983 333.373V333.417C43.2983 335.111 43.8923 336.563 45.1023 337.729ZM51.9443 335.683C51.3723 336.321 50.6243 336.629 49.7003 336.629C48.7983 336.629 48.0503 336.299 47.4563 335.661C46.8843 335.023 46.5983 334.275 46.5983 333.373V333.329C46.5983 332.427 46.8623 331.657 47.4123 331.063C47.9843 330.425 48.7323 330.117 49.6563 330.117C50.5583 330.117 51.3063 330.447 51.9003 331.085C52.4723 331.723 52.7583 332.471 52.7583 333.373V333.417C52.7583 334.319 52.4943 335.089 51.9443 335.683ZM45.3883 326.157H47.9183L49.6563 324.705L51.3943 326.157H53.9683L51.2623 322.703H48.0943L45.3883 326.157ZM58.4796 339.247H61.8236V332.669C61.8236 331.063 62.5276 330.271 63.9136 330.271C65.2556 330.271 65.9376 331.063 65.9376 332.669V339.247H69.2816V331.613C69.2816 330.249 68.9296 329.171 68.2256 328.401C67.5216 327.631 66.5316 327.235 65.2776 327.235C63.9576 327.235 62.8136 327.873 61.8236 329.127V327.455H58.4796V339.247ZM72.2527 341.579C73.8147 342.393 75.5527 342.811 77.4667 342.811C79.7987 342.811 81.4927 342.283 82.5487 341.227C83.5387 340.237 84.0447 338.675 84.0447 336.585V327.455H80.7007V328.995C79.6227 327.829 78.3687 327.235 76.8947 327.235C75.4647 327.235 74.2547 327.719 73.2647 328.665C72.1867 329.699 71.6587 331.041 71.6587 332.735V332.779C71.6587 334.473 72.1867 335.815 73.2427 336.849C74.2327 337.795 75.4427 338.279 76.8947 338.279C78.4127 338.279 79.6887 337.641 80.7447 336.365V336.937C80.7447 339.071 79.6227 340.149 77.3787 340.149C75.9927 340.149 74.6727 339.797 73.3967 339.071L72.2527 341.579ZM79.9087 334.737C79.3587 335.243 78.6767 335.507 77.8627 335.507C77.0487 335.507 76.3667 335.265 75.8167 334.759C75.2667 334.253 75.0027 333.593 75.0027 332.779V332.735C75.0027 331.943 75.2667 331.283 75.8167 330.777C76.3667 330.271 77.0487 330.007 77.8627 330.007C78.6767 330.007 79.3587 330.271 79.9087 330.777C80.4587 331.283 80.7447 331.943 80.7447 332.735V332.779C80.7447 333.571 80.4587 334.231 79.9087 334.737ZM93.1355 341.579C94.6975 342.393 96.4355 342.811 98.3495 342.811C100.681 342.811 102.375 342.283 103.431 341.227C104.421 340.237 104.927 338.675 104.927 336.585V327.455H101.583V328.995C100.505 327.829 99.2515 327.235 97.7775 327.235C96.3475 327.235 95.1375 327.719 94.1475 328.665C93.0695 329.699 92.5415 331.041 92.5415 332.735V332.779C92.5415 334.473 93.0695 335.815 94.1255 336.849C95.1155 337.795 96.3255 338.279 97.7775 338.279C99.2955 338.279 100.571 337.641 101.627 336.365V336.937C101.627 339.071 100.505 340.149 98.2615 340.149C96.8755 340.149 95.5555 339.797 94.2795 339.071L93.1355 341.579ZM100.791 334.737C100.241 335.243 99.5595 335.507 98.7455 335.507C97.9315 335.507 97.2495 335.265 96.6995 334.759C96.1495 334.253 95.8855 333.593 95.8855 332.779V332.735C95.8855 331.943 96.1495 331.283 96.6995 330.777C97.2495 330.271 97.9315 330.007 98.7455 330.007C99.5595 330.007 100.241 330.271 100.791 330.777C101.341 331.283 101.627 331.943 101.627 332.735V332.779C101.627 333.571 101.341 334.231 100.791 334.737ZM107.981 326.157H111.501V323.187H107.981V326.157ZM108.069 339.247H111.413V327.455H108.069V339.247ZM122.628 335.683C122.056 336.321 121.308 336.629 120.384 336.629C119.482 336.629 118.734 336.299 118.14 335.661C117.568 335.023 117.282 334.275 117.282 333.373V333.329C117.282 332.427 117.546 331.657 118.096 331.063C118.668 330.425 119.416 330.117 120.34 330.117C121.242 330.117 121.99 330.447 122.584 331.085C123.156 331.723 123.442 332.471 123.442 333.373V333.417C123.442 334.319 123.178 335.089 122.628 335.683ZM126.17 330.711C127.446 330.271 128.084 329.171 128.084 327.433H126.192C126.258 328.467 125.972 329.149 125.378 329.501C125.246 329.347 125.092 329.171 124.938 329.017C123.728 327.829 122.21 327.235 120.384 327.235C118.558 327.235 117.04 327.829 115.808 329.039C114.598 330.205 113.982 331.657 113.982 333.373V333.417C113.982 335.111 114.576 336.563 115.786 337.729C116.996 338.917 118.514 339.511 120.34 339.511C122.166 339.511 123.684 338.917 124.916 337.707C126.126 336.541 126.742 335.089 126.742 333.373V333.329C126.742 332.383 126.544 331.503 126.17 330.711ZM118.404 326.157H120.868L123.728 323.517L120.846 322.263L118.404 326.157ZM129.831 326.157H133.351V323.187H129.831V326.157ZM129.919 339.247H133.263V327.455H129.919V339.247ZM142.999 339.247H146.343V332.669C146.343 331.063 147.047 330.271 148.433 330.271C149.775 330.271 150.457 331.063 150.457 332.669V339.247H153.801V331.613C153.801 330.249 153.449 329.171 152.745 328.401C152.041 327.631 151.051 327.235 149.797 327.235C148.477 327.235 147.333 327.873 146.343 329.127V323.187H142.999V339.247ZM157.19 338.543C157.938 339.159 158.884 339.467 160.05 339.467C161.524 339.467 162.712 338.961 163.614 337.971V339.247H166.848V332.405C166.848 330.755 166.43 329.501 165.572 328.643C164.692 327.763 163.372 327.323 161.59 327.323C159.984 327.323 158.444 327.631 157.014 328.269L157.85 330.821C159.016 330.403 160.094 330.183 161.106 330.183C162.8 330.183 163.636 330.909 163.636 332.339V332.537C162.69 332.207 161.744 332.053 160.754 332.053C159.302 332.053 158.158 332.361 157.322 332.977C156.442 333.615 156.002 334.561 156.002 335.815V335.859C156.002 336.981 156.398 337.883 157.19 338.543ZM162.954 336.585C162.47 336.959 161.832 337.157 161.062 337.157C159.852 337.157 159.236 336.673 159.236 335.727V335.683C159.236 334.605 160.006 334.055 161.546 334.055C162.338 334.055 163.042 334.209 163.68 334.495V335.089C163.68 335.683 163.438 336.189 162.954 336.585ZM159.83 343.955H163.042V340.787H159.83V343.955ZM169.726 339.247H173.07V332.669C173.07 331.063 173.774 330.271 175.16 330.271C176.502 330.271 177.184 331.063 177.184 332.669V339.247H180.528V331.613C180.528 330.249 180.176 329.171 179.472 328.401C178.768 327.631 177.778 327.235 176.524 327.235C175.204 327.235 174.06 327.873 173.07 329.127V327.455H169.726V339.247ZM189.912 335.903C189.912 338.257 191.056 339.445 193.344 339.445C194.334 339.445 195.214 339.225 195.984 338.763V336.079C195.478 336.365 194.928 336.497 194.334 336.497C193.608 336.497 193.256 336.123 193.256 335.353V330.315H196.028V327.455H193.256V324.441H189.912V327.455H188.504V330.315H189.912V335.903ZM198.493 339.247H201.837V332.669C201.837 331.063 202.541 330.271 203.927 330.271C205.269 330.271 205.951 331.063 205.951 332.669V339.247H209.295V331.613C209.295 330.249 208.943 329.171 208.239 328.401C207.535 327.631 206.545 327.235 205.291 327.235C203.971 327.235 202.827 327.873 201.837 329.127V323.187H198.493V339.247ZM213.168 338.301C213.872 339.071 214.862 339.467 216.116 339.467C217.436 339.467 218.58 338.829 219.57 337.575V339.247H222.914V327.455H219.57V334.033C219.57 335.639 218.866 336.431 217.48 336.431C216.138 336.431 215.456 335.639 215.456 334.033V327.455H212.112V335.089C212.112 336.453 212.464 337.531 213.168 338.301ZM232.503 339.247H235.847V332.669C235.847 331.063 236.551 330.271 237.937 330.271C239.279 330.271 239.961 331.063 239.961 332.669V339.247H243.305V331.613C243.305 330.249 242.953 329.171 242.249 328.401C241.545 327.631 240.555 327.235 239.301 327.235C237.981 327.235 236.837 327.873 235.847 329.127V327.455H232.503V339.247ZM246.21 339.247H249.554V332.669C249.554 331.063 250.258 330.271 251.644 330.271C252.986 330.271 253.668 331.063 253.668 332.669V339.247H257.012V331.613C257.012 330.249 256.66 329.171 255.956 328.401C255.252 327.631 254.262 327.235 253.008 327.235C251.688 327.235 250.544 327.873 249.554 329.127V323.187H246.21V339.247ZM260.401 338.543C261.149 339.159 262.095 339.467 263.261 339.467C264.735 339.467 265.923 338.961 266.825 337.971V339.247H270.059V332.405C270.059 330.755 269.641 329.501 268.783 328.643C267.903 327.763 266.583 327.323 264.801 327.323C263.195 327.323 261.655 327.631 260.225 328.269L261.061 330.821C262.227 330.403 263.305 330.183 264.317 330.183C266.011 330.183 266.847 330.909 266.847 332.339V332.537C265.901 332.207 264.955 332.053 263.965 332.053C262.513 332.053 261.369 332.361 260.533 332.977C259.653 333.615 259.213 334.561 259.213 335.815V335.859C259.213 336.981 259.609 337.883 260.401 338.543ZM266.165 336.585C265.681 336.959 265.043 337.157 264.273 337.157C263.063 337.157 262.447 336.673 262.447 335.727V335.683C262.447 334.605 263.217 334.055 264.757 334.055C265.549 334.055 266.253 334.209 266.891 334.495V335.089C266.891 335.683 266.649 336.189 266.165 336.585ZM260.357 326.157H262.887L264.625 324.705L266.363 326.157H268.937L266.231 322.703H263.063L260.357 326.157ZM263.041 343.955H266.253V340.787H263.041V343.955ZM272.937 342.767H276.281V337.707C277.271 338.873 278.481 339.467 279.955 339.467C281.429 339.467 282.683 338.939 283.695 337.905C284.773 336.761 285.323 335.243 285.323 333.373V333.329C285.323 331.459 284.773 329.941 283.673 328.797C282.661 327.763 281.429 327.235 279.955 327.235C278.437 327.235 277.227 327.873 276.281 329.149V327.455H272.937V342.767ZM281.121 335.749C280.571 336.343 279.911 336.629 279.097 336.629C278.283 336.629 277.623 336.321 277.073 335.727C276.523 335.111 276.237 334.319 276.237 333.373V333.329C276.237 332.383 276.523 331.591 277.073 330.975C277.623 330.381 278.283 330.073 279.097 330.073C279.911 330.073 280.571 330.381 281.121 330.975C281.693 331.591 281.979 332.383 281.979 333.329V333.373C281.979 334.341 281.693 335.133 281.121 335.749Z" fill="#3044B8"/>
<g clip-path="url(#clip0_210_1370)">
<path d="M178 167.247C182.4 167.247 186 163.647 186 159.247V119.247C186 114.847 182.4 111.247 178 111.247H114C109.6 111.247 106 114.847 106 119.247V159.247C106 163.647 109.6 167.247 114 167.247H98V175.247H194V167.247H178ZM114 119.247H178V159.247H114V119.247Z" fill="white"/>
</g>
<defs>
<filter id="filter0_d_210_1370" x="0" y="0.24707" width="293" height="293.368" filterUnits="userSpaceOnUse" color-interpolation-filters="sRGB">
<feFlood flood-opacity="0" result="BackgroundImageFix"/>
<feColorMatrix in="SourceAlpha" type="matrix" values="0 0 0 0 0 0 0 0 0 0 0 0 0 0 0 0 0 0 127 0" result="hardAlpha"/>
<feOffset dy="4"/>
<feGaussianBlur stdDeviation="2"/>
<feComposite in2="hardAlpha" operator="out"/>
<feColorMatrix type="matrix" values="0 0 0 0 0 0 0 0 0 0 0 0 0 0 0 0 0 0 0.25 0"/>
<feBlend mode="normal" in2="BackgroundImageFix" result="effect1_dropShadow_210_1370"/>
<feBlend mode="normal" in="SourceGraphic" in2="effect1_dropShadow_210_1370" result="shape"/>
</filter>
<clipPath id="clip0_210_1370">
<rect width="96" height="96" fill="white" transform="translate(98 95.2471)"/>
</clipPath>
</defs>
</svg>
