<svg width="293" height="345" viewBox="0 0 293 345" fill="none" xmlns="http://www.w3.org/2000/svg">
<g filter="url(#filter0_d_210_1359)">
<ellipse cx="146.5" cy="143.308" rx="142.5" ry="142.684" fill="#3044B8" fill-opacity="0.7" shape-rendering="crispEdges"/>
</g>
<path d="M80.0348 339.624H83.4228V327.348H88.1088V324.224H75.3488V327.348H80.0348V339.624ZM90.255 339.624H93.599V333.046C93.599 331.44 94.303 330.648 95.689 330.648C97.031 330.648 97.713 331.44 97.713 333.046V339.624H101.057V331.99C101.057 330.626 100.705 329.548 100.001 328.778C99.297 328.008 98.307 327.612 97.053 327.612C95.733 327.612 94.589 328.25 93.599 329.504V323.564H90.255V339.624ZM104.93 338.678C105.634 339.448 106.624 339.844 107.878 339.844C109.198 339.844 110.342 339.206 111.332 337.952V339.624H114.676V327.832H111.332V334.41C111.332 336.016 110.628 336.808 109.242 336.808C107.9 336.808 107.218 336.016 107.218 334.41V327.832H103.874V335.466C103.874 336.83 104.226 337.908 104.93 338.678ZM124.265 339.624H127.609V333.046C127.609 331.44 128.313 330.648 129.699 330.648C131.041 330.648 131.723 331.44 131.723 333.046V339.624H135.067V331.99C135.067 330.626 134.715 329.548 134.011 328.778C133.307 328.008 132.317 327.612 131.063 327.612C129.743 327.612 128.599 328.25 127.609 329.504V327.832H124.265V339.624ZM137.972 339.624H141.316V333.046C141.316 331.44 142.02 330.648 143.406 330.648C144.748 330.648 145.43 331.44 145.43 333.046V339.624H148.774V331.99C148.774 330.626 148.422 329.548 147.718 328.778C147.014 328.008 146.024 327.612 144.77 327.612C143.45 327.612 142.306 328.25 141.316 329.504V323.564H137.972V339.624ZM152.163 338.92C152.911 339.536 153.857 339.844 155.023 339.844C156.497 339.844 157.685 339.338 158.587 338.348V339.624H161.821V332.782C161.821 331.132 161.403 329.878 160.545 329.02C159.665 328.14 158.345 327.7 156.563 327.7C154.957 327.7 153.417 328.008 151.987 328.646L152.823 331.198C153.989 330.78 155.067 330.56 156.079 330.56C157.773 330.56 158.609 331.286 158.609 332.716V332.914C157.663 332.584 156.717 332.43 155.727 332.43C154.275 332.43 153.131 332.738 152.295 333.354C151.415 333.992 150.975 334.938 150.975 336.192V336.236C150.975 337.358 151.371 338.26 152.163 338.92ZM157.927 336.962C157.443 337.336 156.805 337.534 156.035 337.534C154.825 337.534 154.209 337.05 154.209 336.104V336.06C154.209 334.982 154.979 334.432 156.519 334.432C157.311 334.432 158.015 334.586 158.653 334.872V335.466C158.653 336.06 158.411 336.566 157.927 336.962ZM152.119 326.534H154.649L156.387 325.082L158.125 326.534H160.699L157.993 323.08H154.825L152.119 326.534ZM154.803 344.332H158.015V341.164H154.803V344.332ZM164.698 343.144H168.042V338.084C169.032 339.25 170.242 339.844 171.716 339.844C173.19 339.844 174.444 339.316 175.456 338.282C176.534 337.138 177.084 335.62 177.084 333.75V333.706C177.084 331.836 176.534 330.318 175.434 329.174C174.422 328.14 173.19 327.612 171.716 327.612C170.198 327.612 168.988 328.25 168.042 329.526V327.832H164.698V343.144ZM172.882 336.126C172.332 336.72 171.672 337.006 170.858 337.006C170.044 337.006 169.384 336.698 168.834 336.104C168.284 335.488 167.998 334.696 167.998 333.75V333.706C167.998 332.76 168.284 331.968 168.834 331.352C169.384 330.758 170.044 330.45 170.858 330.45C171.672 330.45 172.332 330.758 172.882 331.352C173.454 331.968 173.74 332.76 173.74 333.706V333.75C173.74 334.718 173.454 335.51 172.882 336.126ZM186.747 338.106C187.913 339.294 189.387 339.888 191.147 339.888C193.061 339.888 194.667 339.162 195.965 337.732L194.007 335.752C193.127 336.588 192.225 337.006 191.301 337.006C190.399 337.006 189.673 336.698 189.123 336.06C188.573 335.444 188.309 334.674 188.309 333.75V333.706C188.309 332.826 188.573 332.078 189.123 331.44C189.673 330.802 190.355 330.494 191.169 330.494C192.137 330.494 193.039 330.934 193.853 331.792L195.899 329.592C194.733 328.272 193.149 327.612 191.191 327.612C189.409 327.612 187.935 328.206 186.747 329.416C185.581 330.604 185.009 332.056 185.009 333.75V333.794C185.009 335.488 185.581 336.94 186.747 338.106ZM198.634 338.92C199.382 339.536 200.328 339.844 201.494 339.844C202.968 339.844 204.156 339.338 205.058 338.348V339.624H208.292V332.782C208.292 331.132 207.874 329.878 207.016 329.02C206.136 328.14 204.816 327.7 203.034 327.7C201.428 327.7 199.888 328.008 198.458 328.646L199.294 331.198C200.46 330.78 201.538 330.56 202.55 330.56C204.244 330.56 205.08 331.286 205.08 332.716V332.914C204.134 332.584 203.188 332.43 202.198 332.43C200.746 332.43 199.602 332.738 198.766 333.354C197.886 333.992 197.446 334.938 197.446 336.192V336.236C197.446 337.358 197.842 338.26 198.634 338.92ZM204.398 336.962C203.914 337.336 203.276 337.534 202.506 337.534C201.296 337.534 200.68 337.05 200.68 336.104V336.06C200.68 334.982 201.45 334.432 202.99 334.432C203.782 334.432 204.486 334.586 205.124 334.872V335.466C205.124 336.06 204.882 336.566 204.398 336.962ZM212.401 338.106C213.611 339.294 215.129 339.888 216.955 339.888C218.781 339.888 220.299 339.294 221.531 338.084C222.741 336.918 223.357 335.466 223.357 333.75V333.706C223.357 332.012 222.763 330.56 221.553 329.394C220.343 328.206 218.825 327.612 216.999 327.612C215.173 327.612 213.655 328.206 212.423 329.416C211.213 330.582 210.597 332.034 210.597 333.75V333.794C210.597 335.488 211.191 336.94 212.401 338.106ZM219.243 336.06C218.671 336.698 217.923 337.006 216.999 337.006C216.097 337.006 215.349 336.676 214.755 336.038C214.183 335.4 213.897 334.652 213.897 333.75V333.706C213.897 332.804 214.161 332.034 214.711 331.44C215.283 330.802 216.031 330.494 216.955 330.494C217.857 330.494 218.605 330.824 219.199 331.462C219.771 332.1 220.057 332.848 220.057 333.75V333.794C220.057 334.696 219.793 335.466 219.243 336.06Z" fill="#3044B8"/>
<g clip-path="url(#clip0_210_1359)">
<path d="M145.2 139.224C136.12 136.864 133.2 134.424 133.2 130.624C133.2 126.264 137.24 123.224 144 123.224C151.12 123.224 153.76 126.624 154 131.624H162.84C162.56 124.744 158.36 118.424 150 116.384V107.624H138V116.264C130.24 117.944 124 122.984 124 130.704C124 139.944 131.64 144.544 142.8 147.224C152.8 149.624 154.8 153.144 154.8 156.864C154.8 159.624 152.84 164.024 144 164.024C135.76 164.024 132.52 160.344 132.08 155.624H123.28C123.76 164.384 130.32 169.304 138 170.944V179.624H150V171.024C157.8 169.544 164 165.024 164 156.824C164 145.464 154.28 141.584 145.2 139.224Z" fill="white"/>
</g>
<defs>
<filter id="filter0_d_210_1359" x="0" y="0.624023" width="293" height="293.368" filterUnits="userSpaceOnUse" color-interpolation-filters="sRGB">
<feFlood flood-opacity="0" result="BackgroundImageFix"/>
<feColorMatrix in="SourceAlpha" type="matrix" values="0 0 0 0 0 0 0 0 0 0 0 0 0 0 0 0 0 0 127 0" result="hardAlpha"/>
<feOffset dy="4"/>
<feGaussianBlur stdDeviation="2"/>
<feComposite in2="hardAlpha" operator="out"/>
<feColorMatrix type="matrix" values="0 0 0 0 0 0 0 0 0 0 0 0 0 0 0 0 0 0 0.25 0"/>
<feBlend mode="normal" in2="BackgroundImageFix" result="effect1_dropShadow_210_1359"/>
<feBlend mode="normal" in="SourceGraphic" in2="effect1_dropShadow_210_1359" result="shape"/>
</filter>
<clipPath id="clip0_210_1359">
<rect width="96" height="96" fill="white" transform="translate(98 95.624)"/>
</clipPath>
</defs>
</svg>
