<svg width="741" height="102" viewBox="0 0 741 102" fill="none" xmlns="http://www.w3.org/2000/svg">
<g filter="url(#filter0_d_179_58984)">
<path d="M5.654 29H8.237L11.555 16.694H16.217L16.868 14.3H4.94L4.289 16.694H8.972L5.654 29ZM18.236 27.929C19.202 28.79 20.546 29.231 22.247 29.231C24.242 29.231 25.838 28.622 27.056 27.404C28.085 26.375 28.841 24.926 29.345 23.057L31.697 14.3H29.114L26.867 22.658C26.531 23.981 25.985 25.01 25.25 25.745C24.515 26.48 23.612 26.837 22.499 26.837C21.512 26.837 20.735 26.564 20.189 26.039C19.664 25.535 19.412 24.863 19.412 24.023C19.412 23.477 19.475 22.931 19.622 22.406L21.806 14.3H19.202L17.144 22.049C16.913 22.826 16.808 23.603 16.808 24.38C16.808 25.871 17.291 27.068 18.236 27.929ZM34.967 29H37.55L39.041 23.435L47.336 14.3H44.144L38.327 20.936L36.122 14.3H33.245L36.521 23.162L34.967 29ZM45.1578 29H56.0568L56.6868 26.69H48.3498L49.4208 22.742H56.6868L57.3168 20.453H50.0298L51.0588 16.61H59.2698L59.8998 14.3H49.1058L45.1578 29ZM50.8278 12.935H52.9278L54.9438 11.528L56.1828 12.935H58.0728L56.4558 9.848H54.0828L50.8278 12.935ZM57.2328 8.609C58.0938 8.63 58.5138 8.84 58.5138 9.26C58.5138 9.659 58.1988 10.1 57.5688 10.583L59.1858 10.688C60.1098 10.079 60.5718 9.428 60.5718 8.735C60.5718 7.832 59.8158 7.37 58.3248 7.328C58.0938 7.328 57.8208 7.349 57.5478 7.391L57.2328 8.609ZM59.0211 29H61.5831L64.4391 18.311L69.5841 29H71.7471L75.6951 14.3H73.1541L70.3401 24.695L65.3631 14.3H62.9691L59.0211 29ZM81.8258 29H87.0968C90.3518 29 92.9138 28.076 94.7408 26.249C96.3158 24.674 97.1138 22.742 97.1138 20.495C97.1138 18.71 96.5888 17.282 95.5178 16.211C94.2368 14.93 92.3258 14.3 89.7638 14.3H85.7738L81.8258 29ZM89.5748 16.652C91.2968 16.652 92.5778 17.072 93.3968 17.891C94.0898 18.584 94.4258 19.487 94.4258 20.6C94.4258 22.217 93.8798 23.561 92.7878 24.653C91.4648 25.976 89.6588 26.648 87.4118 26.648H85.0388L87.7478 16.652H89.5748ZM100.944 27.929C101.91 28.79 103.254 29.231 104.955 29.231C106.95 29.231 108.546 28.622 109.764 27.404C110.793 26.375 111.549 24.926 112.053 23.057L114.405 14.3H111.822L109.575 22.658C109.239 23.981 108.693 25.01 107.958 25.745C107.223 26.48 106.32 26.837 105.207 26.837C104.22 26.837 103.443 26.564 102.897 26.039C102.372 25.535 102.12 24.863 102.12 24.023C102.12 23.477 102.183 22.931 102.33 22.406L104.514 14.3H101.91L99.852 22.049C99.621 22.826 99.516 23.603 99.516 24.38C99.516 25.871 99.999 27.068 100.944 27.929ZM102.456 33.242H105.27L106.047 30.365H103.233L102.456 33.242ZM114.105 29H116.667L119.523 18.311L124.668 29H126.831L130.779 14.3H128.238L125.424 24.695L120.447 14.3H118.053L114.105 29ZM132.72 27.656C133.98 28.727 135.534 29.252 137.382 29.252C139.293 29.252 141.057 28.769 142.674 27.824L144.669 20.789H138.411L137.802 23.036H141.561L140.658 26.123C139.755 26.627 138.705 26.879 137.55 26.879C136.311 26.879 135.324 26.522 134.547 25.829C133.749 25.094 133.35 24.107 133.35 22.847C133.35 21.041 133.98 19.508 135.261 18.227C136.458 17.03 137.907 16.421 139.566 16.421C141.246 16.421 142.611 17.051 143.64 18.29L145.572 16.652C144.333 14.909 142.401 14.048 139.755 14.048C137.235 14.048 135.093 14.93 133.308 16.715C131.523 18.458 130.641 20.537 130.641 22.931C130.641 24.926 131.334 26.501 132.72 27.656ZM152.082 23.813H158.298L158.97 21.314H152.754L152.082 23.813ZM166.297 29H176.608L177.259 26.648H169.531L172.849 14.3H170.245L166.297 29ZM194.609 17.87C196.457 17.513 197.591 16.337 198.032 14.321H196.352C196.184 15.35 195.722 16.085 194.987 16.505L195.575 14.3H192.992L190.745 22.658C190.409 23.981 189.863 25.01 189.128 25.745C188.393 26.48 187.49 26.837 186.377 26.837C185.39 26.837 184.613 26.564 184.067 26.039C183.542 25.535 183.29 24.863 183.29 24.023C183.29 23.477 183.353 22.931 183.5 22.406L185.684 14.3H183.08L181.022 22.049C180.791 22.826 180.686 23.603 180.686 24.38C180.686 25.871 181.169 27.068 182.114 27.929C183.08 28.79 184.424 29.231 186.125 29.231C188.12 29.231 189.716 28.622 190.934 27.404C191.963 26.375 192.719 24.926 193.223 23.057L194.609 17.87ZM207.757 25.22C206.644 26.333 205.363 26.879 203.893 26.879C202.612 26.879 201.583 26.48 200.827 25.682C200.092 24.905 199.714 23.897 199.714 22.658C199.714 20.873 200.344 19.361 201.625 18.08C202.738 16.967 204.019 16.421 205.489 16.421C206.77 16.421 207.799 16.82 208.555 17.618C209.29 18.395 209.668 19.403 209.668 20.642C209.668 22.427 209.038 23.939 207.757 25.22ZM211.747 17.597C213.028 17.051 213.847 15.959 214.204 14.321H212.524C212.335 15.392 211.873 16.127 211.096 16.547C210.928 16.316 210.739 16.106 210.529 15.896C209.29 14.657 207.694 14.048 205.741 14.048C203.347 14.048 201.31 14.888 199.651 16.589C197.908 18.311 197.026 20.39 197.026 22.805C197.026 24.653 197.635 26.186 198.853 27.404C200.092 28.643 201.667 29.252 203.62 29.252C206.035 29.252 208.072 28.412 209.731 26.711C211.474 24.968 212.356 22.889 212.356 20.495C212.356 19.424 212.146 18.458 211.747 17.597ZM213.383 29H215.945L218.801 18.311L223.946 29H226.109L230.057 14.3H227.516L224.702 24.695L219.725 14.3H217.331L213.383 29ZM231.998 27.656C233.258 28.727 234.812 29.252 236.66 29.252C238.571 29.252 240.335 28.769 241.952 27.824L243.947 20.789H237.689L237.08 23.036H240.839L239.936 26.123C239.033 26.627 237.983 26.879 236.828 26.879C235.589 26.879 234.602 26.522 233.825 25.829C233.027 25.094 232.628 24.107 232.628 22.847C232.628 21.041 233.258 19.508 234.539 18.227C235.736 17.03 237.185 16.421 238.844 16.421C240.524 16.421 241.889 17.051 242.918 18.29L244.85 16.652C243.611 14.909 241.679 14.048 239.033 14.048C236.513 14.048 234.371 14.93 232.586 16.715C230.801 18.458 229.919 20.537 229.919 22.931C229.919 24.926 230.612 26.501 231.998 27.656ZM253.446 27.572C254.664 28.685 256.239 29.252 258.171 29.252C260.334 29.252 262.224 28.475 263.82 26.921L262.119 25.199C260.838 26.312 259.557 26.858 258.234 26.858C257.037 26.858 256.092 26.501 255.357 25.787C254.601 25.052 254.223 24.086 254.223 22.889C254.223 21.041 254.874 19.466 256.197 18.143C257.373 16.988 258.675 16.421 260.124 16.421C261.741 16.421 263.022 17.156 264.009 18.647L266.151 17.198C264.954 15.098 263.043 14.048 260.418 14.048C258.024 14.048 255.945 14.93 254.202 16.673C252.417 18.458 251.535 20.558 251.535 22.994C251.535 24.905 252.165 26.417 253.446 27.572ZM264.25 29H267.064L269.5 25.451H276.451L277.018 29H279.664L277.165 14.195H274.687L264.25 29ZM271.075 23.162L275.191 17.219L276.136 23.162H271.075ZM295.287 15.896C294.048 14.657 292.452 14.048 290.499 14.048C288.105 14.048 286.068 14.888 284.409 16.589C282.666 18.311 281.784 20.39 281.784 22.805C281.784 24.653 282.393 26.186 283.611 27.404C284.85 28.643 286.425 29.252 288.378 29.252C290.793 29.252 292.83 28.412 294.489 26.711C296.232 24.968 297.114 22.889 297.114 20.495C297.114 18.647 296.505 17.114 295.287 15.896ZM292.515 25.22C291.402 26.333 290.121 26.879 288.651 26.879C287.37 26.879 286.341 26.48 285.585 25.682C284.85 24.905 284.472 23.897 284.472 22.658C284.472 20.873 285.102 19.361 286.383 18.08C287.496 16.967 288.777 16.421 290.247 16.421C291.528 16.421 292.557 16.82 293.313 17.618C294.048 18.395 294.426 19.403 294.426 20.642C294.426 22.427 293.796 23.939 292.515 25.22Z" fill="white"/>
</g>
<g filter="url(#filter1_d_179_58984)">
<path d="M4.418 84H11.984V76.902L14.753 73.86L21.656 84H30.704L20.018 68.4L30.353 56.7H21.422L11.984 67.776V56.7H4.418V84ZM32.9063 84H40.4723V73.626H50.1833V84H57.7493V56.7H50.1833V66.918H40.4723V56.7H32.9063V84ZM64.0993 80.412C66.9073 83.181 70.4173 84.546 74.5903 84.546C78.7633 84.546 82.2733 83.142 85.1203 80.373C87.9283 77.643 89.3323 74.289 89.3323 70.35V70.272C89.3323 66.333 87.9283 62.979 85.1593 60.288C82.3513 57.519 78.8413 56.154 74.6683 56.154C70.4953 56.154 66.9853 57.558 64.1383 60.327C61.3303 63.057 59.9263 66.411 59.9263 70.35V70.428C59.9263 74.367 61.3303 77.721 64.0993 80.412ZM79.6603 75.537C78.3733 76.98 76.6963 77.721 74.6683 77.721C72.6403 77.721 70.9633 76.98 69.5983 75.498C68.3113 74.094 67.6483 72.378 67.6483 70.35V70.272C67.6483 68.244 68.2723 66.528 69.5593 65.163C70.8853 63.72 72.5623 62.979 74.5903 62.979C76.6183 62.979 78.2953 63.72 79.6603 65.163C80.9473 66.606 81.5713 68.322 81.5713 70.35V70.428C81.5713 72.456 80.9473 74.172 79.6603 75.537ZM66.5173 54.438H71.4703L74.5513 52.371L77.6323 54.438H82.7023L77.9053 48.627H71.3143L66.5173 54.438ZM93.2344 84H100.722V69.024L112.422 84H119.013V56.7H111.525V71.13L100.293 56.7H93.2344V84ZM125.419 80.568C128.227 83.22 131.776 84.546 136.027 84.546C140.551 84.546 144.49 83.142 147.883 80.295V68.049H135.364V73.587H140.707V76.902C139.576 77.643 138.133 78.033 136.339 78.033C134.194 78.033 132.4 77.331 130.996 75.888C129.631 74.445 128.929 72.651 128.929 70.428V70.35C128.929 68.283 129.592 66.489 130.957 65.046C132.283 63.603 133.921 62.901 135.91 62.901C138.25 62.901 140.434 63.759 142.501 65.475L146.947 60.093C143.905 57.48 140.2 56.154 135.871 56.154C131.698 56.154 128.188 57.519 125.38 60.249C122.611 62.979 121.207 66.333 121.207 70.35V70.428C121.207 74.523 122.611 77.916 125.419 80.568ZM159.987 84H167.904L169.854 79.086H180.423L182.373 84H190.485L178.863 56.505H171.57L159.987 84ZM172.077 73.197L175.158 65.475L178.2 73.197H172.077ZM172.311 54.438H177.81L183.582 50.265L176.523 48.12L172.311 54.438ZM193.134 84H200.7V76.2H204.483C207.954 76.2 210.762 75.381 212.868 73.704C215.091 71.949 216.183 69.492 216.183 66.333V66.255C216.183 63.252 215.169 60.912 213.102 59.235C211.074 57.558 208.344 56.7 204.873 56.7H193.134V84ZM200.7 70.272V63.057H204.288C207.213 63.057 208.656 64.227 208.656 66.606V66.684C208.656 67.737 208.266 68.634 207.486 69.297C206.706 69.96 205.653 70.272 204.327 70.272H200.7ZM230.191 84H250.978V77.37H237.757V56.7H230.191V84ZM279.339 63.642C283.317 63.213 285.306 60.912 285.306 56.739H281.094C281.25 58.884 280.665 60.249 279.339 60.795V56.7H271.695V72.066C271.695 75.81 270.018 77.682 266.625 77.682C263.271 77.682 261.594 75.732 261.594 71.871V56.7H253.95V72.027C253.95 76.2 255.081 79.32 257.343 81.465C259.488 83.493 262.569 84.507 266.547 84.507C270.564 84.507 273.684 83.493 275.868 81.465C278.169 79.32 279.339 76.083 279.339 71.832V63.642ZM263.232 93.009H269.355V86.925H263.232V93.009ZM288.729 80.529C291.42 83.22 294.735 84.546 298.674 84.546C303.705 84.546 307.722 82.479 310.725 78.384L305.031 74.328C303.198 76.551 301.17 77.643 298.869 77.643C296.958 77.643 295.398 76.941 294.189 75.537C292.98 74.172 292.356 72.417 292.356 70.35V70.272C292.356 68.244 292.98 66.528 294.189 65.163C295.437 63.72 296.997 63.018 298.869 63.018C301.092 63.018 303.081 64.071 304.836 66.216L310.53 61.809C307.761 58.026 303.9 56.154 298.947 56.154C294.852 56.154 291.42 57.519 288.69 60.249C285.96 62.979 284.595 66.333 284.595 70.35V70.428C284.595 74.445 285.96 77.838 288.729 80.529ZM313.005 90.435C318.348 90.24 321 87.627 321 82.518V76.317H313.317V83.922H316.281C316.398 86.067 315.111 87.315 312.381 87.588L313.005 90.435ZM337.403 80.529C340.094 83.22 343.409 84.546 347.348 84.546C352.379 84.546 356.396 82.479 359.399 78.384L353.705 74.328C351.872 76.551 349.844 77.643 347.543 77.643C345.632 77.643 344.072 76.941 342.863 75.537C341.654 74.172 341.03 72.417 341.03 70.35V70.272C341.03 68.244 341.654 66.528 342.863 65.163C344.111 63.72 345.671 63.018 347.543 63.018C349.766 63.018 351.755 64.071 353.51 66.216L359.204 61.809C356.435 58.026 352.574 56.154 347.621 56.154C343.526 56.154 340.094 57.519 337.364 60.249C334.634 62.979 333.269 66.333 333.269 70.35V70.428C333.269 74.445 334.634 77.838 337.403 80.529ZM362.692 84H370.258V73.626H379.969V84H387.535V56.7H379.969V66.918H370.258V56.7H362.692V84ZM392.556 84H400.122V56.7H392.556V84ZM392.244 50.382C394.116 50.304 395.052 50.772 395.052 51.786C395.052 52.449 394.623 53.19 393.804 54.009H398.523C399.81 52.8 400.473 51.591 400.473 50.46C400.473 49.446 399.966 48.627 398.913 48.003C397.821 47.379 396.378 47.067 394.545 47.067C393.726 47.067 392.985 47.106 392.244 47.223V50.382ZM417.422 80.529C420.113 83.22 423.428 84.546 427.367 84.546C432.398 84.546 436.415 82.479 439.418 78.384L433.724 74.328C431.891 76.551 429.863 77.643 427.562 77.643C425.651 77.643 424.091 76.941 422.882 75.537C421.673 74.172 421.049 72.417 421.049 70.35V70.272C421.049 68.244 421.673 66.528 422.882 65.163C424.13 63.72 425.69 63.018 427.562 63.018C429.785 63.018 431.774 64.071 433.529 66.216L439.223 61.809C436.454 58.026 432.593 56.154 427.64 56.154C423.545 56.154 420.113 57.519 417.383 60.249C414.653 62.979 413.288 66.333 413.288 70.35V70.428C413.288 74.445 414.653 77.838 417.422 80.529ZM440.566 84H448.483L450.433 79.086H461.002L462.952 84H471.064L459.442 56.505H452.149L440.566 84ZM452.656 73.197L455.737 65.475L458.779 73.197H452.656ZM447.82 54.555H452.5L455.776 52.176L459.052 54.555H463.81L458.818 48.159H452.812L447.82 54.555ZM462.172 48.822H467.32L463.303 41.646L456.439 43.869L462.172 48.822ZM473.713 84H481.201V69.024L492.901 84H499.492V56.7H492.004V71.13L480.772 56.7H473.713V84ZM516.635 80.529C519.326 83.22 522.641 84.546 526.58 84.546C531.611 84.546 535.628 82.479 538.631 78.384L532.937 74.328C531.104 76.551 529.076 77.643 526.775 77.643C524.864 77.643 523.304 76.941 522.095 75.537C520.886 74.172 520.262 72.417 520.262 70.35V70.272C520.262 68.244 520.886 66.528 522.095 65.163C523.343 63.72 524.903 63.018 526.775 63.018C528.998 63.018 530.987 64.071 532.742 66.216L538.436 61.809C535.667 58.026 531.806 56.154 526.853 56.154C522.758 56.154 519.326 57.519 516.596 60.249C513.866 62.979 512.501 66.333 512.501 70.35V70.428C512.501 74.445 513.866 77.838 516.635 80.529ZM541.925 84H549.491V73.626H559.202V84H566.768V56.7H559.202V66.918H549.491V56.7H541.925V84ZM571.789 84H579.355V56.7H571.789V84ZM572.647 54.828H578.146L583.918 50.655L576.859 48.51L572.647 54.828ZM584.353 84H591.841V69.024L603.541 84H610.132V56.7H602.644V71.13L591.412 56.7H584.353V84ZM614.974 84H622.54V73.626H632.251V84H639.817V56.7H632.251V66.918H622.54V56.7H614.974V84ZM671.506 56.7L666.592 64.383L661.795 56.7H653.098L662.068 70.116L652.708 84H661.21L666.475 75.732L671.701 84H680.398L671.038 69.999L680.008 56.7H671.506ZM680.355 84H688.272L690.222 79.086H700.791L702.741 84H710.853L699.231 56.505H691.938L680.355 84ZM692.445 73.197L695.526 65.475L698.568 73.197H692.445ZM692.679 54.438H698.178L703.95 50.265L696.891 48.12L692.679 54.438ZM714.987 80.529C717.678 83.22 720.993 84.546 724.932 84.546C729.963 84.546 733.98 82.479 736.983 78.384L731.289 74.328C729.456 76.551 727.428 77.643 725.127 77.643C723.216 77.643 721.656 76.941 720.447 75.537C719.238 74.172 718.614 72.417 718.614 70.35V70.272C718.614 68.244 719.238 66.528 720.447 65.163C721.695 63.72 723.255 63.018 725.127 63.018C727.35 63.018 729.339 64.071 731.094 66.216L736.788 61.809C734.019 58.026 730.158 56.154 725.205 56.154C721.11 56.154 717.678 57.519 714.948 60.249C712.218 62.979 710.853 66.333 710.853 70.35V70.428C710.853 74.445 712.218 77.838 714.987 80.529Z" fill="white"/>
</g>
<defs>
<filter id="filter0_d_179_58984" x="0.289062" y="7.32812" width="300.825" height="33.9141" filterUnits="userSpaceOnUse" color-interpolation-filters="sRGB">
<feFlood flood-opacity="0" result="BackgroundImageFix"/>
<feColorMatrix in="SourceAlpha" type="matrix" values="0 0 0 0 0 0 0 0 0 0 0 0 0 0 0 0 0 0 127 0" result="hardAlpha"/>
<feOffset dy="4"/>
<feGaussianBlur stdDeviation="2"/>
<feComposite in2="hardAlpha" operator="out"/>
<feColorMatrix type="matrix" values="0 0 0 0 0 0 0 0 0 0 0 0 0 0 0 0 0 0 0.25 0"/>
<feBlend mode="normal" in2="BackgroundImageFix" result="effect1_dropShadow_179_58984"/>
<feBlend mode="normal" in="SourceGraphic" in2="effect1_dropShadow_179_58984" result="shape"/>
</filter>
<filter id="filter1_d_179_58984" x="0.417969" y="41.6465" width="740.565" height="59.3623" filterUnits="userSpaceOnUse" color-interpolation-filters="sRGB">
<feFlood flood-opacity="0" result="BackgroundImageFix"/>
<feColorMatrix in="SourceAlpha" type="matrix" values="0 0 0 0 0 0 0 0 0 0 0 0 0 0 0 0 0 0 127 0" result="hardAlpha"/>
<feOffset dy="4"/>
<feGaussianBlur stdDeviation="2"/>
<feComposite in2="hardAlpha" operator="out"/>
<feColorMatrix type="matrix" values="0 0 0 0 0 0 0 0 0 0 0 0 0 0 0 0 0 0 0.25 0"/>
<feBlend mode="normal" in2="BackgroundImageFix" result="effect1_dropShadow_179_58984"/>
<feBlend mode="normal" in="SourceGraphic" in2="effect1_dropShadow_179_58984" result="shape"/>
</filter>
</defs>
</svg>
