<svg width="660" height="102" viewBox="0 0 660 102" fill="none" xmlns="http://www.w3.org/2000/svg">
<g filter="url(#filter0_d_179_58988)">
<path d="M7.654 29H10.237L13.555 16.694H18.217L18.868 14.3H6.94L6.289 16.694H10.972L7.654 29ZM20.236 27.929C21.202 28.79 22.546 29.231 24.247 29.231C26.242 29.231 27.838 28.622 29.056 27.404C30.085 26.375 30.841 24.926 31.345 23.057L33.697 14.3H31.114L28.867 22.658C28.531 23.981 27.985 25.01 27.25 25.745C26.515 26.48 25.612 26.837 24.499 26.837C23.512 26.837 22.735 26.564 22.189 26.039C21.664 25.535 21.412 24.863 21.412 24.023C21.412 23.477 21.475 22.931 21.622 22.406L23.806 14.3H21.202L19.144 22.049C18.913 22.826 18.808 23.603 18.808 24.38C18.808 25.871 19.291 27.068 20.236 27.929ZM36.967 29H39.55L41.041 23.435L49.336 14.3H46.144L40.327 20.936L38.122 14.3H35.245L38.521 23.162L36.967 29ZM47.1578 29H58.0568L58.6868 26.69H50.3498L51.4208 22.742H58.6868L59.3168 20.453H52.0298L53.0588 16.61H61.2698L61.8998 14.3H51.1058L47.1578 29ZM52.8278 12.935H54.9278L56.9438 11.528L58.1828 12.935H60.0728L58.4558 9.848H56.0828L52.8278 12.935ZM59.2328 8.609C60.0938 8.63 60.5138 8.84 60.5138 9.26C60.5138 9.659 60.1988 10.1 59.5688 10.583L61.1858 10.688C62.1098 10.079 62.5718 9.428 62.5718 8.735C62.5718 7.832 61.8158 7.37 60.3248 7.328C60.0938 7.328 59.8208 7.349 59.5478 7.391L59.2328 8.609ZM61.0211 29H63.5831L66.4391 18.311L71.5841 29H73.7471L77.6951 14.3H75.1541L72.3401 24.695L67.3631 14.3H64.9691L61.0211 29ZM83.8258 29H89.0968C92.3518 29 94.9138 28.076 96.7408 26.249C98.3158 24.674 99.1138 22.742 99.1138 20.495C99.1138 18.71 98.5888 17.282 97.5178 16.211C96.2368 14.93 94.3258 14.3 91.7638 14.3H87.7738L83.8258 29ZM91.5748 16.652C93.2968 16.652 94.5778 17.072 95.3968 17.891C96.0898 18.584 96.4258 19.487 96.4258 20.6C96.4258 22.217 95.8798 23.561 94.7878 24.653C93.4648 25.976 91.6588 26.648 89.4118 26.648H87.0388L89.7478 16.652H91.5748ZM102.944 27.929C103.91 28.79 105.254 29.231 106.955 29.231C108.95 29.231 110.546 28.622 111.764 27.404C112.793 26.375 113.549 24.926 114.053 23.057L116.405 14.3H113.822L111.575 22.658C111.239 23.981 110.693 25.01 109.958 25.745C109.223 26.48 108.32 26.837 107.207 26.837C106.22 26.837 105.443 26.564 104.897 26.039C104.372 25.535 104.12 24.863 104.12 24.023C104.12 23.477 104.183 22.931 104.33 22.406L106.514 14.3H103.91L101.852 22.049C101.621 22.826 101.516 23.603 101.516 24.38C101.516 25.871 101.999 27.068 102.944 27.929ZM104.456 33.242H107.27L108.047 30.365H105.233L104.456 33.242ZM116.105 29H118.667L121.523 18.311L126.668 29H128.831L132.779 14.3H130.238L127.424 24.695L122.447 14.3H120.053L116.105 29ZM134.72 27.656C135.98 28.727 137.534 29.252 139.382 29.252C141.293 29.252 143.057 28.769 144.674 27.824L146.669 20.789H140.411L139.802 23.036H143.561L142.658 26.123C141.755 26.627 140.705 26.879 139.55 26.879C138.311 26.879 137.324 26.522 136.547 25.829C135.749 25.094 135.35 24.107 135.35 22.847C135.35 21.041 135.98 19.508 137.261 18.227C138.458 17.03 139.907 16.421 141.566 16.421C143.246 16.421 144.611 17.051 145.64 18.29L147.572 16.652C146.333 14.909 144.401 14.048 141.755 14.048C139.235 14.048 137.093 14.93 135.308 16.715C133.523 18.458 132.641 20.537 132.641 22.931C132.641 24.926 133.334 26.501 134.72 27.656ZM154.082 23.813H160.298L160.97 21.314H154.754L154.082 23.813ZM168.297 29H178.608L179.259 26.648H171.531L174.849 14.3H172.245L168.297 29ZM196.609 17.87C198.457 17.513 199.591 16.337 200.032 14.321H198.352C198.184 15.35 197.722 16.085 196.987 16.505L197.575 14.3H194.992L192.745 22.658C192.409 23.981 191.863 25.01 191.128 25.745C190.393 26.48 189.49 26.837 188.377 26.837C187.39 26.837 186.613 26.564 186.067 26.039C185.542 25.535 185.29 24.863 185.29 24.023C185.29 23.477 185.353 22.931 185.5 22.406L187.684 14.3H185.08L183.022 22.049C182.791 22.826 182.686 23.603 182.686 24.38C182.686 25.871 183.169 27.068 184.114 27.929C185.08 28.79 186.424 29.231 188.125 29.231C190.12 29.231 191.716 28.622 192.934 27.404C193.963 26.375 194.719 24.926 195.223 23.057L196.609 17.87ZM209.757 25.22C208.644 26.333 207.363 26.879 205.893 26.879C204.612 26.879 203.583 26.48 202.827 25.682C202.092 24.905 201.714 23.897 201.714 22.658C201.714 20.873 202.344 19.361 203.625 18.08C204.738 16.967 206.019 16.421 207.489 16.421C208.77 16.421 209.799 16.82 210.555 17.618C211.29 18.395 211.668 19.403 211.668 20.642C211.668 22.427 211.038 23.939 209.757 25.22ZM213.747 17.597C215.028 17.051 215.847 15.959 216.204 14.321H214.524C214.335 15.392 213.873 16.127 213.096 16.547C212.928 16.316 212.739 16.106 212.529 15.896C211.29 14.657 209.694 14.048 207.741 14.048C205.347 14.048 203.31 14.888 201.651 16.589C199.908 18.311 199.026 20.39 199.026 22.805C199.026 24.653 199.635 26.186 200.853 27.404C202.092 28.643 203.667 29.252 205.62 29.252C208.035 29.252 210.072 28.412 211.731 26.711C213.474 24.968 214.356 22.889 214.356 20.495C214.356 19.424 214.146 18.458 213.747 17.597ZM215.383 29H217.945L220.801 18.311L225.946 29H228.109L232.057 14.3H229.516L226.702 24.695L221.725 14.3H219.331L215.383 29ZM233.998 27.656C235.258 28.727 236.812 29.252 238.66 29.252C240.571 29.252 242.335 28.769 243.952 27.824L245.947 20.789H239.689L239.08 23.036H242.839L241.936 26.123C241.033 26.627 239.983 26.879 238.828 26.879C237.589 26.879 236.602 26.522 235.825 25.829C235.027 25.094 234.628 24.107 234.628 22.847C234.628 21.041 235.258 19.508 236.539 18.227C237.736 17.03 239.185 16.421 240.844 16.421C242.524 16.421 243.889 17.051 244.918 18.29L246.85 16.652C245.611 14.909 243.679 14.048 241.033 14.048C238.513 14.048 236.371 14.93 234.586 16.715C232.801 18.458 231.919 20.537 231.919 22.931C231.919 24.926 232.612 26.501 233.998 27.656ZM255.446 27.572C256.664 28.685 258.239 29.252 260.171 29.252C262.334 29.252 264.224 28.475 265.82 26.921L264.119 25.199C262.838 26.312 261.557 26.858 260.234 26.858C259.037 26.858 258.092 26.501 257.357 25.787C256.601 25.052 256.223 24.086 256.223 22.889C256.223 21.041 256.874 19.466 258.197 18.143C259.373 16.988 260.675 16.421 262.124 16.421C263.741 16.421 265.022 17.156 266.009 18.647L268.151 17.198C266.954 15.098 265.043 14.048 262.418 14.048C260.024 14.048 257.945 14.93 256.202 16.673C254.417 18.458 253.535 20.558 253.535 22.994C253.535 24.905 254.165 26.417 255.446 27.572ZM266.25 29H269.064L271.5 25.451H278.451L279.018 29H281.664L279.165 14.195H276.687L266.25 29ZM273.075 23.162L277.191 17.219L278.136 23.162H273.075ZM297.287 15.896C296.048 14.657 294.452 14.048 292.499 14.048C290.105 14.048 288.068 14.888 286.409 16.589C284.666 18.311 283.784 20.39 283.784 22.805C283.784 24.653 284.393 26.186 285.611 27.404C286.85 28.643 288.425 29.252 290.378 29.252C292.793 29.252 294.83 28.412 296.489 26.711C298.232 24.968 299.114 22.889 299.114 20.495C299.114 18.647 298.505 17.114 297.287 15.896ZM294.515 25.22C293.402 26.333 292.121 26.879 290.651 26.879C289.37 26.879 288.341 26.48 287.585 25.682C286.85 24.905 286.472 23.897 286.472 22.658C286.472 20.873 287.102 19.361 288.383 18.08C289.496 16.967 290.777 16.421 292.247 16.421C293.528 16.421 294.557 16.82 295.313 17.618C296.048 18.395 296.426 19.403 296.426 20.642C296.426 22.427 295.796 23.939 294.515 25.22Z" fill="white"/>
</g>
<g filter="url(#filter1_d_179_58988)">
<path d="M13.087 84H20.653V63.33H28.843V56.7H4.936V63.33H13.087V84ZM32.1641 84H39.7301V73.626H49.4411V84H57.0071V56.7H49.4411V66.918H39.7301V56.7H32.1641V84ZM80.67 75.537C79.383 76.98 77.706 77.721 75.678 77.721C73.65 77.721 71.973 76.98 70.608 75.498C69.321 74.094 68.658 72.378 68.658 70.35V70.272C68.658 68.244 69.282 66.528 70.569 65.163C71.895 63.72 73.572 62.979 75.6 62.979C77.628 62.979 79.305 63.72 80.67 65.163C81.957 66.606 82.581 68.322 82.581 70.35V70.428C82.581 72.456 81.957 74.172 80.67 75.537ZM88.314 62.94C90.498 61.887 91.59 59.82 91.59 56.739H87.378C87.495 58.494 87.144 59.742 86.286 60.405C86.247 60.366 86.208 60.327 86.169 60.288C83.361 57.519 79.851 56.154 75.678 56.154C71.505 56.154 67.995 57.558 65.148 60.327C62.34 63.057 60.936 66.411 60.936 70.35V70.428C60.936 74.367 62.34 77.721 65.109 80.412C67.917 83.181 71.427 84.546 75.6 84.546C79.773 84.546 83.283 83.142 86.13 80.373C88.938 77.643 90.342 74.289 90.342 70.35V70.272C90.342 67.503 89.679 65.085 88.314 62.94ZM74.742 54.867H79.89L75.873 47.691L69.009 49.914L74.742 54.867ZM94.4392 84H102.005V56.7H94.4392V84ZM119.382 80.568C122.19 83.22 125.739 84.546 129.99 84.546C134.514 84.546 138.453 83.142 141.846 80.295V68.049H129.327V73.587H134.67V76.902C133.539 77.643 132.096 78.033 130.302 78.033C128.157 78.033 126.363 77.331 124.959 75.888C123.594 74.445 122.892 72.651 122.892 70.428V70.35C122.892 68.283 123.555 66.489 124.92 65.046C126.246 63.603 127.884 62.901 129.873 62.901C132.213 62.901 134.397 63.759 136.464 65.475L140.91 60.093C137.868 57.48 134.163 56.154 129.834 56.154C125.661 56.154 122.151 57.519 119.343 60.249C116.574 62.979 115.17 66.333 115.17 70.35V70.428C115.17 74.523 116.574 77.916 119.382 80.568ZM146.236 84H153.802V56.7H146.236V84ZM155.893 84H163.81L165.76 79.086H176.329L178.279 84H186.391L174.769 56.505H167.476L155.893 84ZM167.983 73.197L171.064 65.475L174.106 73.197H167.983ZM189.04 84H196.528V69.024L208.228 84H214.819V56.7H207.331V71.13L196.099 56.7H189.04V84ZM230.478 84H251.265V77.37H238.044V56.7H230.478V84ZM252.403 84H260.32L262.27 79.086H272.839L274.789 84H282.901L271.279 56.505H263.986L252.403 84ZM264.493 73.197L267.574 65.475L270.616 73.197H264.493ZM270.577 54.438L266.326 48.12L259.267 50.265L265.039 54.438H270.577ZM285.55 84H292.96V68.361L299.902 79.008H300.058L307.039 68.322V84H314.566V56.7H306.571L300.058 67.269L293.545 56.7H285.55V84ZM335.232 84.195H342.252L353.328 56.7H345.06L338.82 73.977L332.619 56.7H324.195L335.232 84.195ZM356.166 84H363.732V56.7H356.166V84ZM368.73 84H390.882V77.565H376.218V73.236H389.322V67.269H376.218V63.096H390.687V56.7H368.73V84ZM371.811 54.867H376.491L379.767 52.488L383.043 54.867H387.801L382.809 48.471H376.803L371.811 54.867ZM376.764 93.009H382.887V86.925H376.764V93.009ZM398.017 80.529C400.708 83.22 404.023 84.546 407.962 84.546C412.993 84.546 417.01 82.479 420.013 78.384L414.319 74.328C412.486 76.551 410.458 77.643 408.157 77.643C406.246 77.643 404.686 76.941 403.477 75.537C402.268 74.172 401.644 72.417 401.644 70.35V70.272C401.644 68.244 402.268 66.528 403.477 65.163C404.725 63.72 406.285 63.018 408.157 63.018C410.38 63.018 412.369 64.071 414.124 66.216L419.818 61.809C417.049 58.026 413.188 56.154 408.235 56.154C404.14 56.154 400.708 57.519 397.978 60.249C395.248 62.979 393.883 66.333 393.883 70.35V70.428C393.883 74.445 395.248 77.838 398.017 80.529ZM434.123 84H454.91V77.37H441.689V56.7H434.123V84ZM458.388 84H465.954V56.7H458.388V84ZM470.952 84H478.44V69.024L490.14 84H496.731V56.7H489.243V71.13L478.011 56.7H470.952V84ZM501.573 84H509.139V73.626H518.85V84H526.416V56.7H518.85V66.918H509.139V56.7H501.573V84ZM542.059 84H549.625V73.626H559.336V84H566.902V56.7H559.336V66.918H549.625V56.7H542.059V84ZM573.252 80.412C576.06 83.181 579.57 84.546 583.743 84.546C587.916 84.546 591.426 83.142 594.273 80.373C597.081 77.643 598.485 74.289 598.485 70.35V70.272C598.485 66.333 597.081 62.979 594.312 60.288C591.504 57.519 587.994 56.154 583.821 56.154C579.648 56.154 576.138 57.558 573.291 60.327C570.483 63.057 569.079 66.411 569.079 70.35V70.428C569.079 74.367 570.483 77.721 573.252 80.412ZM588.813 75.537C587.526 76.98 585.849 77.721 583.821 77.721C581.793 77.721 580.116 76.98 578.751 75.498C577.464 74.094 576.801 72.378 576.801 70.35V70.272C576.801 68.244 577.425 66.528 578.712 65.163C580.038 63.72 581.715 62.979 583.743 62.979C585.771 62.979 587.448 63.72 588.813 65.163C590.1 66.606 590.724 68.322 590.724 70.35V70.428C590.724 72.456 590.1 74.172 588.813 75.537ZM600.242 84H608.159L610.109 79.086H620.678L622.628 84H630.74L619.118 56.505H611.825L600.242 84ZM612.332 73.197L615.413 65.475L618.455 73.197H612.332ZM612.449 93.009H618.572V86.925H612.449V93.009ZM640.058 84H647.624V63.33H655.814V56.7H631.907V63.33H640.058V84Z" fill="white"/>
</g>
<defs>
<filter id="filter0_d_179_58988" x="2.28906" y="7.32812" width="300.825" height="33.9141" filterUnits="userSpaceOnUse" color-interpolation-filters="sRGB">
<feFlood flood-opacity="0" result="BackgroundImageFix"/>
<feColorMatrix in="SourceAlpha" type="matrix" values="0 0 0 0 0 0 0 0 0 0 0 0 0 0 0 0 0 0 127 0" result="hardAlpha"/>
<feOffset dy="4"/>
<feGaussianBlur stdDeviation="2"/>
<feComposite in2="hardAlpha" operator="out"/>
<feColorMatrix type="matrix" values="0 0 0 0 0 0 0 0 0 0 0 0 0 0 0 0 0 0 0.25 0"/>
<feBlend mode="normal" in2="BackgroundImageFix" result="effect1_dropShadow_179_58988"/>
<feBlend mode="normal" in="SourceGraphic" in2="effect1_dropShadow_179_58988" result="shape"/>
</filter>
<filter id="filter1_d_179_58988" x="0.936035" y="47.6914" width="658.878" height="53.3174" filterUnits="userSpaceOnUse" color-interpolation-filters="sRGB">
<feFlood flood-opacity="0" result="BackgroundImageFix"/>
<feColorMatrix in="SourceAlpha" type="matrix" values="0 0 0 0 0 0 0 0 0 0 0 0 0 0 0 0 0 0 127 0" result="hardAlpha"/>
<feOffset dy="4"/>
<feGaussianBlur stdDeviation="2"/>
<feComposite in2="hardAlpha" operator="out"/>
<feColorMatrix type="matrix" values="0 0 0 0 0 0 0 0 0 0 0 0 0 0 0 0 0 0 0.25 0"/>
<feBlend mode="normal" in2="BackgroundImageFix" result="effect1_dropShadow_179_58988"/>
<feBlend mode="normal" in="SourceGraphic" in2="effect1_dropShadow_179_58988" result="shape"/>
</filter>
</defs>
</svg>
