<svg width="629" height="102" viewBox="0 0 629 102" fill="none" xmlns="http://www.w3.org/2000/svg">
<g filter="url(#filter0_d_179_2031)">
<path d="M5.654 29H8.237L11.555 16.694H16.217L16.868 14.3H4.94L4.289 16.694H8.972L5.654 29ZM18.236 27.929C19.202 28.79 20.546 29.231 22.247 29.231C24.242 29.231 25.838 28.622 27.056 27.404C28.085 26.375 28.841 24.926 29.345 23.057L31.697 14.3H29.114L26.867 22.658C26.531 23.981 25.985 25.01 25.25 25.745C24.515 26.48 23.612 26.837 22.499 26.837C21.512 26.837 20.735 26.564 20.189 26.039C19.664 25.535 19.412 24.863 19.412 24.023C19.412 23.477 19.475 22.931 19.622 22.406L21.806 14.3H19.202L17.144 22.049C16.913 22.826 16.808 23.603 16.808 24.38C16.808 25.871 17.291 27.068 18.236 27.929ZM34.967 29H37.55L39.041 23.435L47.336 14.3H44.144L38.327 20.936L36.122 14.3H33.245L36.521 23.162L34.967 29ZM45.1578 29H56.0568L56.6868 26.69H48.3498L49.4208 22.742H56.6868L57.3168 20.453H50.0298L51.0588 16.61H59.2698L59.8998 14.3H49.1058L45.1578 29ZM50.8278 12.935H52.9278L54.9438 11.528L56.1828 12.935H58.0728L56.4558 9.848H54.0828L50.8278 12.935ZM57.2328 8.609C58.0938 8.63 58.5138 8.84 58.5138 9.26C58.5138 9.659 58.1988 10.1 57.5688 10.583L59.1858 10.688C60.1098 10.079 60.5718 9.428 60.5718 8.735C60.5718 7.832 59.8158 7.37 58.3248 7.328C58.0938 7.328 57.8208 7.349 57.5478 7.391L57.2328 8.609ZM59.0211 29H61.5831L64.4391 18.311L69.5841 29H71.7471L75.6951 14.3H73.1541L70.3401 24.695L65.3631 14.3H62.9691L59.0211 29ZM81.8258 29H87.0968C90.3518 29 92.9138 28.076 94.7408 26.249C96.3158 24.674 97.1138 22.742 97.1138 20.495C97.1138 18.71 96.5888 17.282 95.5178 16.211C94.2368 14.93 92.3258 14.3 89.7638 14.3H85.7738L81.8258 29ZM89.5748 16.652C91.2968 16.652 92.5778 17.072 93.3968 17.891C94.0898 18.584 94.4258 19.487 94.4258 20.6C94.4258 22.217 93.8798 23.561 92.7878 24.653C91.4648 25.976 89.6588 26.648 87.4118 26.648H85.0388L87.7478 16.652H89.5748ZM100.944 27.929C101.91 28.79 103.254 29.231 104.955 29.231C106.95 29.231 108.546 28.622 109.764 27.404C110.793 26.375 111.549 24.926 112.053 23.057L114.405 14.3H111.822L109.575 22.658C109.239 23.981 108.693 25.01 107.958 25.745C107.223 26.48 106.32 26.837 105.207 26.837C104.22 26.837 103.443 26.564 102.897 26.039C102.372 25.535 102.12 24.863 102.12 24.023C102.12 23.477 102.183 22.931 102.33 22.406L104.514 14.3H101.91L99.852 22.049C99.621 22.826 99.516 23.603 99.516 24.38C99.516 25.871 99.999 27.068 100.944 27.929ZM102.456 33.242H105.27L106.047 30.365H103.233L102.456 33.242ZM114.105 29H116.667L119.523 18.311L124.668 29H126.831L130.779 14.3H128.238L125.424 24.695L120.447 14.3H118.053L114.105 29ZM132.72 27.656C133.98 28.727 135.534 29.252 137.382 29.252C139.293 29.252 141.057 28.769 142.674 27.824L144.669 20.789H138.411L137.802 23.036H141.561L140.658 26.123C139.755 26.627 138.705 26.879 137.55 26.879C136.311 26.879 135.324 26.522 134.547 25.829C133.749 25.094 133.35 24.107 133.35 22.847C133.35 21.041 133.98 19.508 135.261 18.227C136.458 17.03 137.907 16.421 139.566 16.421C141.246 16.421 142.611 17.051 143.64 18.29L145.572 16.652C144.333 14.909 142.401 14.048 139.755 14.048C137.235 14.048 135.093 14.93 133.308 16.715C131.523 18.458 130.641 20.537 130.641 22.931C130.641 24.926 131.334 26.501 132.72 27.656ZM152.082 23.813H158.298L158.97 21.314H152.754L152.082 23.813ZM166.297 29H176.608L177.259 26.648H169.531L172.849 14.3H170.245L166.297 29ZM194.609 17.87C196.457 17.513 197.591 16.337 198.032 14.321H196.352C196.184 15.35 195.722 16.085 194.987 16.505L195.575 14.3H192.992L190.745 22.658C190.409 23.981 189.863 25.01 189.128 25.745C188.393 26.48 187.49 26.837 186.377 26.837C185.39 26.837 184.613 26.564 184.067 26.039C183.542 25.535 183.29 24.863 183.29 24.023C183.29 23.477 183.353 22.931 183.5 22.406L185.684 14.3H183.08L181.022 22.049C180.791 22.826 180.686 23.603 180.686 24.38C180.686 25.871 181.169 27.068 182.114 27.929C183.08 28.79 184.424 29.231 186.125 29.231C188.12 29.231 189.716 28.622 190.934 27.404C191.963 26.375 192.719 24.926 193.223 23.057L194.609 17.87ZM207.757 25.22C206.644 26.333 205.363 26.879 203.893 26.879C202.612 26.879 201.583 26.48 200.827 25.682C200.092 24.905 199.714 23.897 199.714 22.658C199.714 20.873 200.344 19.361 201.625 18.08C202.738 16.967 204.019 16.421 205.489 16.421C206.77 16.421 207.799 16.82 208.555 17.618C209.29 18.395 209.668 19.403 209.668 20.642C209.668 22.427 209.038 23.939 207.757 25.22ZM211.747 17.597C213.028 17.051 213.847 15.959 214.204 14.321H212.524C212.335 15.392 211.873 16.127 211.096 16.547C210.928 16.316 210.739 16.106 210.529 15.896C209.29 14.657 207.694 14.048 205.741 14.048C203.347 14.048 201.31 14.888 199.651 16.589C197.908 18.311 197.026 20.39 197.026 22.805C197.026 24.653 197.635 26.186 198.853 27.404C200.092 28.643 201.667 29.252 203.62 29.252C206.035 29.252 208.072 28.412 209.731 26.711C211.474 24.968 212.356 22.889 212.356 20.495C212.356 19.424 212.146 18.458 211.747 17.597ZM213.383 29H215.945L218.801 18.311L223.946 29H226.109L230.057 14.3H227.516L224.702 24.695L219.725 14.3H217.331L213.383 29ZM231.998 27.656C233.258 28.727 234.812 29.252 236.66 29.252C238.571 29.252 240.335 28.769 241.952 27.824L243.947 20.789H237.689L237.08 23.036H240.839L239.936 26.123C239.033 26.627 237.983 26.879 236.828 26.879C235.589 26.879 234.602 26.522 233.825 25.829C233.027 25.094 232.628 24.107 232.628 22.847C232.628 21.041 233.258 19.508 234.539 18.227C235.736 17.03 237.185 16.421 238.844 16.421C240.524 16.421 241.889 17.051 242.918 18.29L244.85 16.652C243.611 14.909 241.679 14.048 239.033 14.048C236.513 14.048 234.371 14.93 232.586 16.715C230.801 18.458 229.919 20.537 229.919 22.931C229.919 24.926 230.612 26.501 231.998 27.656ZM253.446 27.572C254.664 28.685 256.239 29.252 258.171 29.252C260.334 29.252 262.224 28.475 263.82 26.921L262.119 25.199C260.838 26.312 259.557 26.858 258.234 26.858C257.037 26.858 256.092 26.501 255.357 25.787C254.601 25.052 254.223 24.086 254.223 22.889C254.223 21.041 254.874 19.466 256.197 18.143C257.373 16.988 258.675 16.421 260.124 16.421C261.741 16.421 263.022 17.156 264.009 18.647L266.151 17.198C264.954 15.098 263.043 14.048 260.418 14.048C258.024 14.048 255.945 14.93 254.202 16.673C252.417 18.458 251.535 20.558 251.535 22.994C251.535 24.905 252.165 26.417 253.446 27.572ZM264.25 29H267.064L269.5 25.451H276.451L277.018 29H279.664L277.165 14.195H274.687L264.25 29ZM271.075 23.162L275.191 17.219L276.136 23.162H271.075ZM295.287 15.896C294.048 14.657 292.452 14.048 290.499 14.048C288.105 14.048 286.068 14.888 284.409 16.589C282.666 18.311 281.784 20.39 281.784 22.805C281.784 24.653 282.393 26.186 283.611 27.404C284.85 28.643 286.425 29.252 288.378 29.252C290.793 29.252 292.83 28.412 294.489 26.711C296.232 24.968 297.114 22.889 297.114 20.495C297.114 18.647 296.505 17.114 295.287 15.896ZM292.515 25.22C291.402 26.333 290.121 26.879 288.651 26.879C287.37 26.879 286.341 26.48 285.585 25.682C284.85 24.905 284.472 23.897 284.472 22.658C284.472 20.873 285.102 19.361 286.383 18.08C287.496 16.967 288.777 16.421 290.247 16.421C291.528 16.421 292.557 16.82 293.313 17.618C294.048 18.395 294.426 19.403 294.426 20.642C294.426 22.427 293.796 23.939 292.515 25.22Z" fill="white"/>
</g>
<g filter="url(#filter1_d_179_2031)">
<path d="M4.418 84H11.906V69.024L23.606 84H30.197V56.7H22.709V71.13L11.477 56.7H4.418V84ZM35.0391 84H42.6051V73.626H52.3161V84H59.8821V56.7H52.3161V66.918H42.6051V56.7H35.0391V84ZM61.8013 84H69.7183L71.6683 79.086H82.2373L84.1873 84H92.2993L80.6773 56.505H73.3843L61.8013 84ZM73.8913 73.197L76.9723 65.475L80.0143 73.197H73.8913ZM68.9383 54.555H73.8913L76.9723 52.488L80.0533 54.555H85.1233L80.3263 48.744H73.7353L68.9383 54.555ZM94.9483 84H102.436V69.024L114.136 84H120.727V56.7H113.239V71.13L102.007 56.7H94.9483V84ZM141.393 84.195H148.413L159.489 56.7H151.221L144.981 73.977L138.78 56.7H130.356L141.393 84.195ZM162.327 84H169.893V56.7H162.327V84ZM174.891 84H197.043V77.565H182.379V73.236H195.483V67.269H182.379V63.096H196.848V56.7H174.891V84ZM177.855 54.828H182.808L185.889 52.761L188.97 54.828H194.04L189.243 49.017H182.652L177.855 54.828ZM200.941 84H208.429V69.024L220.129 84H226.72V56.7H219.232V71.13L208 56.7H200.941V84ZM242.379 84H249.867V69.024L261.567 84H268.158V56.7H260.67V71.13L249.438 56.7H242.379V84ZM273 84H280.566V73.626H290.277V84H297.843V56.7H290.277V66.918H280.566V56.7H273V84ZM300.524 84H308.441L310.391 79.086H320.96L322.91 84H331.022L319.4 56.505H312.107L300.524 84ZM312.614 73.197L315.695 65.475L318.737 73.197H312.614ZM307.778 54.867H312.458L315.734 52.488L319.01 54.867H323.768L318.776 48.471H312.77L307.778 54.867ZM312.731 93.009H318.854V86.925H312.731V93.009ZM333.671 84H341.237V76.2H345.02C348.491 76.2 351.299 75.381 353.405 73.704C355.628 71.949 356.72 69.492 356.72 66.333V66.255C356.72 63.252 355.706 60.912 353.639 59.235C351.611 57.558 348.881 56.7 345.41 56.7H333.671V84ZM341.237 70.272V63.057H344.825C347.75 63.057 349.193 64.227 349.193 66.606V66.684C349.193 67.737 348.803 68.634 348.023 69.297C347.243 69.96 346.19 70.272 344.864 70.272H341.237ZM370.729 84H391.516V77.37H378.295V56.7H370.729V84ZM394.994 84H402.56V56.7H394.994V84ZM407.558 84H429.71V77.565H415.046V73.236H428.15V67.269H415.046V63.096H429.515V56.7H407.558V84ZM410.639 54.867H415.319L418.595 52.488L421.871 54.867H426.629L421.637 48.471H415.631L410.639 54.867ZM415.592 93.009H421.715V86.925H415.592V93.009ZM436.689 81.465C438.834 83.493 441.915 84.507 445.893 84.507C449.91 84.507 453.03 83.493 455.214 81.465C457.515 79.32 458.685 76.083 458.685 71.832V56.7H451.041V72.066C451.041 75.81 449.364 77.682 445.971 77.682C442.617 77.682 440.94 75.732 440.94 71.871V56.7H433.296V72.027C433.296 76.2 434.427 79.32 436.689 81.465ZM475.504 80.412C478.312 83.181 481.822 84.546 485.995 84.546C490.168 84.546 493.678 83.142 496.525 80.373C499.333 77.643 500.737 74.289 500.737 70.35V70.272C500.737 66.333 499.333 62.979 496.564 60.288C493.756 57.519 490.246 56.154 486.073 56.154C481.9 56.154 478.39 57.558 475.543 60.327C472.735 63.057 471.331 66.411 471.331 70.35V70.428C471.331 74.367 472.735 77.721 475.504 80.412ZM491.065 75.537C489.778 76.98 488.101 77.721 486.073 77.721C484.045 77.721 482.368 76.98 481.003 75.498C479.716 74.094 479.053 72.378 479.053 70.35V70.272C479.053 68.244 479.677 66.528 480.964 65.163C482.29 63.72 483.967 62.979 485.995 62.979C488.023 62.979 489.7 63.72 491.065 65.163C492.352 66.606 492.976 68.322 492.976 70.35V70.428C492.976 72.456 492.352 74.172 491.065 75.537ZM504.639 84H512.127V69.024L523.827 84H530.418V56.7H522.93V71.13L511.698 56.7H504.639V84ZM535.26 84H556.047V77.37H542.826V56.7H535.26V84ZM559.525 84H567.091V56.7H559.525V84ZM572.089 84H579.577V69.024L591.277 84H597.868V56.7H590.38V71.13L579.148 56.7H572.089V84ZM602.71 84H624.862V77.565H610.198V73.236H623.302V67.269H610.198V63.096H624.667V56.7H602.71V84Z" fill="white"/>
</g>
<defs>
<filter id="filter0_d_179_2031" x="0.289062" y="7.32812" width="300.825" height="33.9141" filterUnits="userSpaceOnUse" color-interpolation-filters="sRGB">
<feFlood flood-opacity="0" result="BackgroundImageFix"/>
<feColorMatrix in="SourceAlpha" type="matrix" values="0 0 0 0 0 0 0 0 0 0 0 0 0 0 0 0 0 0 127 0" result="hardAlpha"/>
<feOffset dy="4"/>
<feGaussianBlur stdDeviation="2"/>
<feComposite in2="hardAlpha" operator="out"/>
<feColorMatrix type="matrix" values="0 0 0 0 0 0 0 0 0 0 0 0 0 0 0 0 0 0 0.25 0"/>
<feBlend mode="normal" in2="BackgroundImageFix" result="effect1_dropShadow_179_2031"/>
<feBlend mode="normal" in="SourceGraphic" in2="effect1_dropShadow_179_2031" result="shape"/>
</filter>
<filter id="filter1_d_179_2031" x="0.417969" y="48.4707" width="628.444" height="52.5381" filterUnits="userSpaceOnUse" color-interpolation-filters="sRGB">
<feFlood flood-opacity="0" result="BackgroundImageFix"/>
<feColorMatrix in="SourceAlpha" type="matrix" values="0 0 0 0 0 0 0 0 0 0 0 0 0 0 0 0 0 0 127 0" result="hardAlpha"/>
<feOffset dy="4"/>
<feGaussianBlur stdDeviation="2"/>
<feComposite in2="hardAlpha" operator="out"/>
<feColorMatrix type="matrix" values="0 0 0 0 0 0 0 0 0 0 0 0 0 0 0 0 0 0 0.25 0"/>
<feBlend mode="normal" in2="BackgroundImageFix" result="effect1_dropShadow_179_2031"/>
<feBlend mode="normal" in="SourceGraphic" in2="effect1_dropShadow_179_2031" result="shape"/>
</filter>
</defs>
</svg>
