<svg width="72" height="68" viewBox="0 0 72 68" fill="none" xmlns="http://www.w3.org/2000/svg">
<g clip-path="url(#clip0_138_178)">
<path d="M22.1692 67.0231C17.9744 67.0231 13.7644 67.1614 9.56959 67.0076C4.60668 66.8079 0.811523 62.6442 0.811523 57.681C0.811523 41.6551 0.842351 25.6291 0.811523 9.58757C0.811523 4.10228 5.0985 0.276301 10.0314 0.138002C15.1935 -0.000296637 20.3716 0.107175 25.5495 0.107175C25.6417 0.107175 25.7647 0.0610752 25.8108 0.214929C25.78 0.491526 25.5051 0.522071 25.3354 0.629542C22.2931 2.4113 19.5118 4.54772 17.1763 7.19095C13.3198 11.5546 10.646 16.5639 9.73816 22.3871C8.14023 32.6665 11.3516 41.3926 18.6187 48.6772C19.9095 49.9832 20.0783 50.9963 19.0489 52.7498C17.8045 54.8548 15.9144 56.285 13.9015 57.59C13.6866 57.7127 13.4714 57.8665 13.2561 58.0048C12.9335 58.2814 13.1334 58.4197 13.41 58.5422C13.4718 58.6787 13.5492 58.8075 13.6405 58.9263C15.4073 60.4937 17.0821 62.1685 18.8184 63.7664C19.6329 64.5193 20.4471 65.303 21.2308 66.0856C21.5546 66.3774 22.0923 66.4699 22.1692 67.0231Z" fill="#0180C7"/>
<path d="M22.1692 67.0238C22.0923 66.4865 21.5546 66.3937 21.2319 66.071C20.4482 65.272 19.634 64.5039 18.8195 63.7519C17.0833 62.1528 15.4084 60.4783 13.6416 58.9117C13.5504 58.793 13.473 58.6641 13.4111 58.5277C17.3293 59.2958 21.155 58.7734 24.9196 57.621C26.1949 57.2369 27.4704 56.8528 28.7609 56.5301C29.6338 56.3011 30.5559 56.344 31.4038 56.6532C41.145 60.0017 50.764 59.6946 60.2291 55.5462C64.0856 53.8405 67.6044 51.4437 70.5854 48.4475C70.7389 48.2939 70.8464 48.0634 71.1227 48.0479C71.261 48.2631 71.1841 48.4936 71.1841 48.7241V57.7126C71.2149 62.8446 67.0971 67.0241 61.9642 67.0702H61.8872C56.3559 67.1007 50.8245 67.0702 45.2928 67.0702H23.0912C22.7839 67.0393 22.4765 67.0239 22.1692 67.0241V67.0238Z" fill="#0172B1"/>
<path d="M24.5667 32.6374C26.8858 32.6374 29.0689 32.6219 31.2353 32.6374C32.4492 32.6527 33.1098 33.1598 33.2328 34.1276C33.3711 35.3415 32.6644 36.156 31.3428 36.1713C28.854 36.2021 26.3798 36.1868 23.8908 36.1868C23.1687 36.1868 22.4617 36.2174 21.7396 36.1713C20.8485 36.1252 19.9726 35.9408 19.5424 35.019C19.1122 34.0973 19.4194 33.2673 20.0034 32.5144C22.3695 29.5026 24.7511 26.4759 27.1327 23.4641C27.271 23.2797 27.4093 23.0964 27.5476 22.9267C27.394 22.6654 27.1799 22.7884 26.9944 22.7729C25.3351 22.7576 23.6603 22.7729 22.001 22.7576C21.6187 22.7556 21.2376 22.7143 20.8637 22.6346C20.6569 22.5871 20.4614 22.4992 20.2884 22.3761C20.1155 22.253 19.9686 22.097 19.856 21.9171C19.7434 21.7371 19.6673 21.5367 19.6322 21.3274C19.5971 21.118 19.6036 20.9038 19.6513 20.697C19.7896 20.1132 20.2506 19.6367 20.8346 19.4984C21.2065 19.4061 21.5883 19.3597 21.9715 19.3601C24.7064 19.3448 27.4582 19.3448 30.192 19.3601C30.6791 19.3473 31.1655 19.4044 31.6363 19.5298C32.6811 19.8833 33.1268 20.8511 32.711 21.8653C32.3434 22.7421 31.7582 23.4941 31.1745 24.247C29.1616 26.8131 27.1487 29.3638 25.136 31.899C24.9663 32.0986 24.8133 32.2983 24.5673 32.6366L24.5667 32.6374Z" fill="#0180C7"/>
<path d="M42.39 24.5539C42.7576 24.0774 43.1428 23.6319 43.773 23.5089C44.9868 23.2631 46.1238 24.0462 46.139 25.276C46.1851 28.3491 46.1699 31.4222 46.139 34.4959C46.1395 34.8835 46.016 35.2611 45.7865 35.5735C45.5571 35.8859 45.2338 36.1168 44.8638 36.2324C44.4885 36.3777 44.0764 36.3979 43.6887 36.2899C43.3011 36.1819 42.9587 35.9515 42.7127 35.6331C42.4513 35.3104 42.345 35.249 41.9751 35.5409C40.5768 36.6778 38.9942 36.8775 37.2888 36.3246C34.5536 35.4332 33.4319 33.2984 33.1248 30.7007C32.8021 27.8889 33.7394 25.492 36.2593 24.0168C38.3488 22.7724 40.4693 22.8799 42.39 24.5542V24.5539ZM36.9508 30.1622C36.9813 30.8382 37.1966 31.4836 37.5959 32.0212C38.4257 33.1276 40.0083 33.3581 41.1311 32.5283C41.3225 32.3832 41.4931 32.2126 41.6382 32.0212C42.4986 30.8534 42.4986 28.9328 41.6382 27.7651C41.4297 27.4726 41.1559 27.2329 40.8385 27.0649C40.5211 26.8969 40.1689 26.8052 39.8098 26.7972C38.1194 26.6895 36.9358 27.9956 36.9513 30.1622H36.9508ZM53.0381 30.2544C52.9157 26.3054 55.5128 23.3553 59.2002 23.2478C63.1184 23.1248 65.9763 25.7522 66.099 29.5935C66.222 33.4811 63.8404 36.2316 60.1683 36.6001C56.1579 36.9997 52.9773 34.0957 53.0387 30.2544H53.0381ZM56.8947 29.8868C56.8646 30.658 57.0977 31.4166 57.5556 32.0379C57.7562 32.3017 58.0072 32.5232 58.294 32.6893C58.5807 32.8555 58.8976 32.9632 59.2263 33.006C59.5549 33.0489 59.8889 33.0262 60.2087 32.9391C60.5285 32.8521 60.8278 32.7024 61.0894 32.4989C61.2591 32.3759 61.3969 32.2223 61.5352 32.0684C62.4263 30.9007 62.4263 28.9339 61.5504 27.7662C61.1203 27.1824 60.444 26.8136 59.722 26.7984C58.063 26.705 56.8952 27.965 56.8952 29.8856L56.8947 29.8868ZM51.686 27.1977C51.686 29.5793 51.7012 31.961 51.686 34.3426C51.6942 34.8672 51.4958 35.3739 51.1336 35.7535C50.7714 36.133 50.2744 36.3548 49.7501 36.371C49.5587 36.3733 49.3677 36.3526 49.1813 36.3093C48.4132 36.1097 47.8292 35.2951 47.8292 34.3273V22.1106C47.8292 21.3886 47.8139 20.6818 47.8292 19.9595C47.8447 18.7765 48.5976 18.008 49.7345 18.008C50.9023 17.9928 51.686 18.7612 51.686 19.9903C51.7018 22.3872 51.6865 24.7997 51.6865 27.1966L51.686 27.1977Z" fill="#0180C7"/>
<path d="M61.9965 0.308839C63.1958 0.307723 64.3835 0.543115 65.4917 1.00154C66.6 1.45997 67.6069 2.13244 68.4549 2.98046C69.3029 3.82848 69.9754 4.8354 70.4338 5.94361C70.8922 7.05181 71.1276 8.23954 71.1265 9.43882V57.646C71.1276 58.8453 70.8922 60.033 70.4337 61.1412C69.9753 62.2493 69.3028 63.2562 68.4548 64.1043C67.6068 64.9523 66.5999 65.6247 65.4917 66.0832C64.3835 66.5416 63.1958 66.777 61.9965 66.776H10.1693C8.97001 66.7771 7.78228 66.5417 6.67408 66.0833C5.56587 65.6248 4.55895 64.9524 3.71093 64.1043C2.86291 63.2563 2.19044 62.2494 1.73201 61.1412C1.27358 60.033 1.03819 58.8453 1.03931 57.646V9.43882C1.03819 8.23954 1.27358 7.05181 1.73201 5.94361C2.19044 4.8354 2.86291 3.82848 3.71093 2.98046C4.55895 2.13244 5.56587 1.45997 6.67408 1.00154C7.78228 0.543115 8.97001 0.307723 10.1693 0.308839H61.9965ZM61.9965 0H10.1693C4.95636 0 0.730469 4.22589 0.730469 9.43882V57.646C0.730469 62.8589 4.95636 67.0848 10.1693 67.0848H61.9965C67.2095 67.0848 71.4354 62.8589 71.4354 57.646V9.43882C71.4354 4.22589 67.2095 0 61.9965 0Z" fill="#0180C7"/>
</g>
<defs>
<clipPath id="clip0_138_178">
<rect width="70.7049" height="67.0848" fill="white" transform="translate(0.730469)"/>
</clipPath>
</defs>
</svg>
