<svg width="30" height="30" viewBox="0 0 30 30" fill="none" xmlns="http://www.w3.org/2000/svg">
<path d="M30 2.85512V27.1186C29.2655 29.2696 27.7306 30.0211 25.5014 29.9996C18.2687 29.9293 11.0346 29.9752 3.80049 29.9723C1.51821 29.9709 0.000523355 28.4566 0.000523355 26.175C0.000523355 18.7096 0.000523355 11.2441 0.000523355 3.77862C-0.00413363 3.47035 0.0222989 3.1624 0.0794203 2.85942C0.400746 1.32359 1.46657 0.501905 2.85803 0H27.1425C28.5827 0.466532 29.5352 1.41824 30 2.85512ZM8.26031 1.43401H4.03431C2.2082 1.43401 1.43501 2.20408 1.43501 4.02958V25.9341C1.43501 27.7654 2.21107 28.5455 4.03144 28.5455H25.949C26.1642 28.5455 26.3793 28.5526 26.5917 28.5326C27.5183 28.4494 28.3561 27.8514 28.4565 26.9465C28.5799 25.8897 28.4852 24.8084 28.4852 23.7372C28.452 23.7361 28.4188 23.7385 28.3862 23.7444L28.0003 23.9265C23.9407 25.8481 19.7204 26.3055 15.4428 24.9303C13.7142 24.3782 12.231 24.3194 10.6157 25.187C9.55422 25.7606 8.32056 25.8481 7.13711 25.5412C6.87029 25.4724 6.51167 25.1727 6.48011 24.9404C6.44855 24.708 6.7584 24.4155 6.93915 24.1646C6.98649 24.0972 7.10842 24.0843 7.19018 24.0384C7.51346 23.8637 7.79332 23.6187 8.00908 23.3213C8.22483 23.024 8.37096 22.6819 8.43666 22.3205C8.50236 21.9591 8.48594 21.5875 8.38862 21.2333C8.2913 20.8791 8.11558 20.5513 7.87444 20.2741C4.87779 16.8052 3.68142 12.8272 4.59089 8.29577C5.103 5.71741 6.35675 3.50043 8.26031 1.43401ZM11.2885 14.2727C12.264 12.7154 13.1663 11.2957 14.0442 9.86171C14.519 9.08734 14.2264 8.5711 13.3169 8.5711C12.2711 8.55962 11.224 8.5711 10.1782 8.5711C9.67902 8.5711 9.30462 8.76899 9.30606 9.2881C9.30749 9.80722 9.68333 10.0051 10.1825 10.0051C10.8381 9.99794 11.4937 10.0051 12.2482 10.0051C12.0789 10.3019 11.9713 10.5056 11.8494 10.702C11.069 11.9496 10.2715 13.1886 9.50832 14.4462C9.05789 15.1848 9.35196 15.6981 10.217 15.711C11.2627 15.7254 12.3099 15.711 13.3556 15.711C13.8864 15.711 14.2837 15.5189 14.2651 14.9596C14.2479 14.4434 13.8491 14.2684 13.3571 14.2785C12.7173 14.2828 12.0775 14.2727 11.2885 14.2727ZM19.2844 13.2546C19.2844 12.6609 19.3087 12.0658 19.2844 11.475C19.26 10.8842 18.8124 10.6146 18.2573 10.7938C18.026 10.8718 17.7775 10.8833 17.54 10.8268C16.4498 10.54 15.3883 10.877 14.7585 11.7546C14.4569 12.1711 14.293 12.6714 14.2897 13.1856C14.2863 13.6998 14.4437 14.2022 14.7399 14.6226C15.3754 15.5304 16.4512 15.8774 17.5759 15.5676C17.7881 15.5144 18.0112 15.5233 18.2185 15.5935C18.8182 15.8071 19.2456 15.5547 19.2786 14.8922C19.3059 14.3473 19.2858 13.8009 19.2844 13.2546ZM24.6608 15.6924C25.1544 15.6887 25.6358 15.5388 26.0442 15.2616C26.4526 14.9845 26.7695 14.5925 26.9551 14.1352C27.1406 13.678 27.1864 13.176 27.0866 12.6928C26.9868 12.2095 26.7459 11.7667 26.3943 11.4203C26.0428 11.0739 25.5965 10.8395 25.1117 10.7467C24.6269 10.6538 24.1255 10.7068 23.6708 10.8988C23.2161 11.0908 22.8286 11.4133 22.5572 11.8255C22.2858 12.2377 22.1428 12.721 22.1462 13.2144C22.1574 13.8748 22.4269 14.5046 22.8969 14.9688C23.3669 15.4331 24.0001 15.6949 24.6608 15.6981V15.6924ZM21.4289 11.7933C21.4289 10.8426 21.4189 9.89182 21.4289 8.93964C21.4375 8.39328 21.3601 7.867 20.693 7.87417C20.0791 7.88134 19.9887 8.3775 19.9916 8.90379C20.003 10.8292 20.003 12.7546 19.9916 14.68C19.9916 15.2163 20.1106 15.6838 20.726 15.6838C21.3414 15.6838 21.4433 15.1747 21.4289 14.6527C21.4203 13.6948 21.4289 12.7441 21.4289 11.7933Z" fill="white"/>
</svg>
